<?xml version="1.0" encoding="UTF-8"?> <svg xmlns="http://www.w3.org/2000/svg" xmlns:xlink="http://www.w3.org/1999/xlink" id="Layer_1" version="1.1" viewBox="0 0 380.5 96.4"><defs><style> .st0 { fill: url(#linear-gradient2); } .st1 { fill: url(#linear-gradient39); } .st1, .st2, .st3, .st4, .st5, .st6, .st7, .st8, .st9, .st10, .st11, .st12, .st13, .st14, .st15, .st16, .st17, .st18, .st19, .st20, .st21, .st22, .st23, .st24, .st25, .st26, .st27, .st28, .st29, .st30, .st31, .st32, .st33, .st34, .st35, .st36, .st37, .st38, .st39 { isolation: isolate; } .st1, .st2, .st3, .st4, .st5, .st6, .st7, .st8, .st9, .st11, .st12, .st13, .st14, .st17, .st18, .st19, .st20, .st21, .st22, .st23, .st24, .st25, .st26, .st27, .st28, .st29, .st30, .st31, .st32, .st33, .st34, .st35, .st36, .st37, .st38, .st39 { opacity: 0; } .st2 { fill: url(#linear-gradient10); } .st3 { fill: url(#linear-gradient41); } .st4 { fill: url(#linear-gradient42); } .st5 { fill: url(#linear-gradient25); } .st40 { fill: #fff; } .st41 { fill: url(#linear-gradient1); } .st6 { fill: url(#linear-gradient22); } .st42 { fill: url(#linear-gradient9); } .st7 { fill: url(#linear-gradient21); } .st8 { fill: url(#linear-gradient37); } .st43 { fill: url(#linear-gradient8); } .st9 { fill: url(#linear-gradient32); } .st44 { fill: none; } .st10 { fill: url(#radial-gradient4); mix-blend-mode: screen; } .st45 { fill: url(#radial-gradient); } .st11 { fill: url(#linear-gradient13); } .st12 { fill: url(#linear-gradient34); } .st46 { fill: url(#radial-gradient1); } .st13 { fill: url(#linear-gradient11); } .st47 { fill: url(#linear-gradient46); } .st14 { fill: url(#linear-gradient29); } .st15 { fill: url(#radial-gradient3); opacity: 0; } .st48 { fill: #591f16; } .st17 { fill: url(#linear-gradient38); } .st18 { fill: url(#linear-gradient15); } .st49 { fill: #fcf9f4; } .st19 { fill: url(#linear-gradient28); } .st20 { fill: url(#linear-gradient31); } .st21 { fill: url(#linear-gradient30); } .st22 { fill: url(#linear-gradient18); } .st23 { fill: url(#linear-gradient36); } .st50 { fill: url(#linear-gradient7); } .st24 { fill: url(#linear-gradient23); } .st25 { fill: url(#linear-gradient35); } .st51 { fill: url(#linear-gradient4); } .st26 { fill: url(#linear-gradient16); } .st27 { fill: url(#linear-gradient20); } .st52 { fill: url(#linear-gradient5); } .st53 { fill: url(#linear-gradient3); } .st54 { fill: #551710; } .st28 { fill: url(#linear-gradient44); } .st29 { fill: url(#linear-gradient12); } .st30 { fill: url(#linear-gradient45); } .st31 { fill: url(#linear-gradient43); } .st32 { fill: url(#linear-gradient24); } .st33 { fill: url(#linear-gradient17); } .st55 { fill: url(#radial-gradient2); } .st34 { fill: url(#linear-gradient19); } .st56 { fill: url(#linear-gradient6); } .st35 { fill: url(#linear-gradient26); } .st36 { fill: url(#linear-gradient33); } .st37 { fill: url(#linear-gradient40); } .st57 { fill: url(#linear-gradient); } .st38 { fill: url(#linear-gradient27); } .st58 { fill: #c8a48a; } .st59 { clip-path: url(#clippath); } .st39 { fill: url(#linear-gradient14); } </style><clipPath id="clippath"><circle class="st44" cx="48.2" cy="48.2" r="48.2"></circle></clipPath><radialGradient id="radial-gradient" cx="48.7" cy="50.3" fx="48.7" fy="50.3" r="30.3" gradientTransform="translate(0 98.4) scale(1 -1)" gradientUnits="userSpaceOnUse"><stop offset="0" stop-color="#ff891c"></stop><stop offset=".2" stop-color="#dd771d"></stop><stop offset=".4" stop-color="#af5f1f"></stop><stop offset=".7" stop-color="#8e4e21"></stop><stop offset=".9" stop-color="#7a4322"></stop><stop offset="1" stop-color="#734023"></stop></radialGradient><linearGradient id="linear-gradient" x1="4.3" y1="50.2" x2="92.1" y2="50.2" gradientTransform="translate(0 98.4) scale(1 -1)" gradientUnits="userSpaceOnUse"><stop offset="0" stop-color="#fff16c"></stop><stop offset="0" stop-color="#f5d35c"></stop><stop offset=".2" stop-color="#da8032"></stop><stop offset=".2" stop-color="#e19751"></stop><stop offset=".3" stop-color="#e9af71"></stop><stop offset=".4" stop-color="#eec088"></stop><stop offset=".4" stop-color="#f1cb96"></stop><stop offset=".5" stop-color="#f3cf9b"></stop><stop offset=".5" stop-color="#e9c599"></stop><stop offset=".6" stop-color="#c29d94"></stop><stop offset=".7" stop-color="#a57f90"></stop><stop offset=".8" stop-color="#946e8d"></stop><stop offset=".8" stop-color="#8e688d"></stop><stop offset=".9" stop-color="#fbcbff"></stop></linearGradient><linearGradient id="linear-gradient1" x1="4.3" y1="50.2" x2="92.1" y2="50.2" gradientTransform="translate(0 98.4) scale(1 -1)" gradientUnits="userSpaceOnUse"><stop offset="0" stop-color="#fff16c"></stop><stop offset=".1" stop-color="#fcf4aa"></stop><stop offset=".3" stop-color="#f9fafe"></stop><stop offset=".8" stop-color="#f5fcfd"></stop><stop offset=".8" stop-color="#f8e2fe"></stop><stop offset=".9" stop-color="#fad1fe"></stop><stop offset=".9" stop-color="#fbcbff"></stop></linearGradient><linearGradient id="linear-gradient2" x1="4.3" y1="67.6" x2="92.1" y2="67.6" gradientTransform="translate(0 98.4) scale(1 -1)" gradientUnits="userSpaceOnUse"><stop offset="0" stop-color="#fff16c"></stop><stop offset="0" stop-color="#f5d35c"></stop><stop offset=".2" stop-color="#da8032"></stop><stop offset=".2" stop-color="#e19751"></stop><stop offset=".3" stop-color="#e9af71"></stop><stop offset=".4" stop-color="#eec088"></stop><stop offset=".4" stop-color="#f1cb96"></stop><stop offset=".5" stop-color="#f3cf9b"></stop><stop offset=".5" stop-color="#e9c599"></stop><stop offset=".6" stop-color="#c29d94"></stop><stop offset=".7" stop-color="#a57f90"></stop><stop offset=".8" stop-color="#946e8d"></stop><stop offset=".8" stop-color="#8e688d"></stop><stop offset=".9" stop-color="#fbcbff"></stop></linearGradient><linearGradient id="linear-gradient3" x1="4.3" y1="77.5" x2="92.1" y2="77.5" gradientTransform="translate(0 98.4) scale(1 -1)" gradientUnits="userSpaceOnUse"><stop offset="0" stop-color="#fff16c"></stop><stop offset="0" stop-color="#f5d35c"></stop><stop offset=".2" stop-color="#da8032"></stop><stop offset=".2" stop-color="#e19751"></stop><stop offset=".3" stop-color="#e9af71"></stop><stop offset=".4" stop-color="#eec088"></stop><stop offset=".4" stop-color="#f1cb96"></stop><stop offset=".5" stop-color="#f3cf9b"></stop><stop offset=".5" stop-color="#e9c599"></stop><stop offset=".6" stop-color="#c29d94"></stop><stop offset=".7" stop-color="#a57f90"></stop><stop offset=".8" stop-color="#946e8d"></stop><stop offset=".8" stop-color="#8e688d"></stop><stop offset=".9" stop-color="#fbcbff"></stop></linearGradient><radialGradient id="radial-gradient1" cx="48.2" cy="50.2" fx="48.2" fy="50.2" r="43.3" gradientTransform="translate(0 98.4) scale(1 -1)" gradientUnits="userSpaceOnUse"><stop offset=".9" stop-color="#f2793c"></stop><stop offset=".9" stop-color="#df4a2c"></stop><stop offset=".9" stop-color="#d63224"></stop><stop offset="1" stop-color="#c11418"></stop><stop offset="1" stop-color="#b30011"></stop></radialGradient><radialGradient id="radial-gradient2" cx="48.2" cy="50.2" fx="48.2" fy="50.2" r="39.9" gradientTransform="translate(0 98.4) scale(1 -1)" gradientUnits="userSpaceOnUse"><stop offset=".8" stop-color="#8f542b"></stop><stop offset=".9" stop-color="#894e28"></stop><stop offset="1" stop-color="#7b3f20"></stop><stop offset="1" stop-color="#74381d"></stop></radialGradient><linearGradient id="linear-gradient4" x1="33.8" y1="71" x2="37.2" y2="66.5" gradientTransform="translate(0 98.4) scale(1 -1)" gradientUnits="userSpaceOnUse"><stop offset="0" stop-color="#ee9c5d"></stop><stop offset="0" stop-color="#eea161"></stop><stop offset=".2" stop-color="#f1b06f"></stop><stop offset=".3" stop-color="#f5c985"></stop><stop offset=".4" stop-color="#fae49d"></stop></linearGradient><linearGradient id="linear-gradient5" x1="32.4" y1="70.7" x2="38.4" y2="65.1" gradientTransform="translate(0 98.4) scale(1 -1)" gradientUnits="userSpaceOnUse"><stop offset="0" stop-color="#ee9c5d"></stop><stop offset="0" stop-color="#eea161"></stop><stop offset=".2" stop-color="#f1b06f"></stop><stop offset=".3" stop-color="#f5c985"></stop><stop offset=".4" stop-color="#fae49d"></stop></linearGradient><linearGradient id="linear-gradient6" x1="31.4" y1="69.6" x2="37.8" y2="65.6" gradientTransform="translate(0 98.4) scale(1 -1)" gradientUnits="userSpaceOnUse"><stop offset="0" stop-color="#ee9c5d"></stop><stop offset="0" stop-color="#eea161"></stop><stop offset=".2" stop-color="#f1b06f"></stop><stop offset=".3" stop-color="#f5c985"></stop><stop offset=".4" stop-color="#fae49d"></stop></linearGradient><linearGradient id="linear-gradient7" x1="30.5" y1="68.1" x2="35.2" y2="66.2" gradientTransform="translate(0 98.4) scale(1 -1)" gradientUnits="userSpaceOnUse"><stop offset="0" stop-color="#ee9c5d"></stop><stop offset=".1" stop-color="#eea161"></stop><stop offset=".3" stop-color="#f1b06f"></stop><stop offset=".5" stop-color="#f5c985"></stop><stop offset=".6" stop-color="#fae49d"></stop></linearGradient><linearGradient id="linear-gradient8" x1="32.5" y1="66.4" x2="35.4" y2="62.9" gradientTransform="translate(0 98.4) scale(1 -1)" gradientUnits="userSpaceOnUse"><stop offset="0" stop-color="#f3b86b"></stop><stop offset="0" stop-color="#f3bc70"></stop><stop offset=".2" stop-color="#f5c97f"></stop><stop offset=".3" stop-color="#f9df98"></stop><stop offset=".4" stop-color="#fae49d"></stop><stop offset=".5" stop-color="#fae8ad"></stop><stop offset=".7" stop-color="#fdf3d8"></stop><stop offset=".8" stop-color="#fffaf1"></stop></linearGradient><linearGradient id="linear-gradient9" x1="28.8" y1="68" x2="62.9" y2="29.5" gradientTransform="translate(0 98.4) scale(1 -1)" gradientUnits="userSpaceOnUse"><stop offset="0" stop-color="#f3b86b"></stop><stop offset="0" stop-color="#f3bc70"></stop><stop offset="0" stop-color="#f5c97f"></stop><stop offset=".1" stop-color="#f9df98"></stop><stop offset=".2" stop-color="#fae49d"></stop><stop offset=".2" stop-color="#fbe8af"></stop><stop offset=".2" stop-color="#fcefc7"></stop><stop offset=".2" stop-color="#fdf4da"></stop><stop offset=".3" stop-color="#fef7e7"></stop><stop offset=".3" stop-color="#fef9ee"></stop><stop offset=".5" stop-color="#fffaf1"></stop><stop offset=".7" stop-color="#fef9ef"></stop><stop offset=".7" stop-color="#fef7e8"></stop><stop offset=".8" stop-color="#fdf4dc"></stop><stop offset=".8" stop-color="#fcf0cb"></stop><stop offset=".8" stop-color="#fbeab5"></stop><stop offset=".9" stop-color="#fae49d"></stop><stop offset=".9" stop-color="#f7d58c"></stop><stop offset=".9" stop-color="#f3b86b"></stop></linearGradient><linearGradient id="linear-gradient10" x1="46" y1="26.3" x2="48.8" y2="26.3" gradientTransform="translate(19.5 25.6) rotate(88.1) scale(1 -1)" gradientUnits="userSpaceOnUse"><stop offset="0" stop-color="#fff6e7"></stop><stop offset="1" stop-color="#c77f43" stop-opacity="0"></stop></linearGradient><linearGradient id="linear-gradient11" x1="38.9" y1="26.7" x2="48.7" y2="26.7" gradientTransform="translate(9.6 33.4) rotate(79.5) scale(1 -1)" gradientUnits="userSpaceOnUse"><stop offset="0" stop-color="#fff6e7"></stop><stop offset="1" stop-color="#c77f43" stop-opacity="0"></stop></linearGradient><linearGradient id="linear-gradient12" x1="35.9" y1="27.1" x2="48.7" y2="27.1" gradientTransform="translate(5.7 36.9) rotate(75.8) scale(1 -1)" gradientUnits="userSpaceOnUse"><stop offset="0" stop-color="#fff6e7"></stop><stop offset="1" stop-color="#c77f43" stop-opacity="0"></stop></linearGradient><linearGradient id="linear-gradient13" x1="24.4" y1="29.4" x2="48.7" y2="29.4" gradientTransform="translate(-6.9 51.4) rotate(60.9) scale(1 -1)" gradientUnits="userSpaceOnUse"><stop offset="0" stop-color="#fff6e7"></stop><stop offset="1" stop-color="#c77f43" stop-opacity="0"></stop></linearGradient><linearGradient id="linear-gradient14" x1="21.3" y1="30.3" x2="48.7" y2="30.3" gradientTransform="translate(-9.6 55.7) rotate(56.5) scale(1 -1)" gradientUnits="userSpaceOnUse"><stop offset="0" stop-color="#fff6e7"></stop><stop offset="1" stop-color="#c77f43" stop-opacity="0"></stop></linearGradient><linearGradient id="linear-gradient15" x1="17.9" y1="31.5" x2="48.6" y2="31.5" gradientTransform="translate(-12.1 60.4) rotate(51.5) scale(1 -1)" gradientUnits="userSpaceOnUse"><stop offset="0" stop-color="#fff6e7"></stop><stop offset="1" stop-color="#c77f43" stop-opacity="0"></stop></linearGradient><linearGradient id="linear-gradient16" x1="11.9" y1="34.4" x2="48.6" y2="34.4" gradientTransform="translate(-15.2 69.9) rotate(41.3) scale(1 -1)" gradientUnits="userSpaceOnUse"><stop offset="0" stop-color="#fff6e7"></stop><stop offset="1" stop-color="#c77f43" stop-opacity="0"></stop></linearGradient><linearGradient id="linear-gradient17" x1="7.5" y1="37.3" x2="48.5" y2="37.3" gradientTransform="translate(-15.6 77.5) rotate(32.5) scale(1 -1)" gradientUnits="userSpaceOnUse"><stop offset="0" stop-color="#fff6e7"></stop><stop offset="1" stop-color="#c77f43" stop-opacity="0"></stop></linearGradient><linearGradient id="linear-gradient18" x1="1.2" y1="44.6" x2="48.2" y2="44.6" gradientTransform="translate(-9.6 91.5) rotate(13.3) scale(1 -1)" gradientUnits="userSpaceOnUse"><stop offset="0" stop-color="#fff6e7"></stop><stop offset="1" stop-color="#c77f43" stop-opacity="0"></stop></linearGradient><linearGradient id="linear-gradient19" x1=".3" y1="47.5" x2="48.1" y2="47.5" gradientTransform="translate(-5 95.5) rotate(6.2) scale(1 -1)" gradientUnits="userSpaceOnUse"><stop offset="0" stop-color="#fff6e7"></stop><stop offset="1" stop-color="#c77f43" stop-opacity="0"></stop></linearGradient><linearGradient id="linear-gradient20" x1="0" y1="49.1" x2="48" y2="49.1" gradientTransform="translate(-2.1 97.3) rotate(2.5) scale(1 -1)" gradientUnits="userSpaceOnUse"><stop offset="0" stop-color="#fff6e7"></stop><stop offset="1" stop-color="#c77f43" stop-opacity="0"></stop></linearGradient><linearGradient id="linear-gradient21" x1="0" y1="52.1" x2="48" y2="52.1" gradientTransform="translate(-29.8 26.6) rotate(85.3) scale(1 -1)" gradientUnits="userSpaceOnUse"><stop offset="0" stop-color="#fff6e7"></stop><stop offset="1" stop-color="#c77f43" stop-opacity="0"></stop></linearGradient><linearGradient id="linear-gradient22" x1="1.1" y1="55.6" x2="48" y2="55.6" gradientTransform="translate(0 98.4) scale(1 -1)" gradientUnits="userSpaceOnUse"><stop offset="0" stop-color="#fff6e7"></stop><stop offset="1" stop-color="#c77f43" stop-opacity="0"></stop></linearGradient><linearGradient id="linear-gradient23" x1="1.8" y1="57" x2="48" y2="57" gradientTransform="translate(0 98.4) scale(1 -1)" gradientUnits="userSpaceOnUse"><stop offset="0" stop-color="#fff6e7"></stop><stop offset="1" stop-color="#c77f43" stop-opacity="0"></stop></linearGradient><linearGradient id="linear-gradient24" x1="5.9" y1="62.1" x2="48.1" y2="62.1" gradientTransform="translate(-40.3 43.6) rotate(60.3) scale(1 -1)" gradientUnits="userSpaceOnUse"><stop offset="0" stop-color="#fff6e7"></stop><stop offset="1" stop-color="#c77f43" stop-opacity="0"></stop></linearGradient><linearGradient id="linear-gradient25" x1="8.6" y1="64.2" x2="48.2" y2="64.2" gradientTransform="translate(-40.3 48.7) rotate(54.2) scale(1 -1)" gradientUnits="userSpaceOnUse"><stop offset="0" stop-color="#fff6e7"></stop><stop offset="1" stop-color="#c77f43" stop-opacity="0"></stop></linearGradient><linearGradient id="linear-gradient26" x1="10.6" y1="65.6" x2="48.2" y2="65.6" gradientTransform="translate(-39.8 52.3) rotate(50.1) scale(1 -1)" gradientUnits="userSpaceOnUse"><stop offset="0" stop-color="#fff6e7"></stop><stop offset="1" stop-color="#c77f43" stop-opacity="0"></stop></linearGradient><linearGradient id="linear-gradient27" x1="16.3" y1="68.5" x2="48.2" y2="68.5" gradientTransform="translate(-36.7 61.3) rotate(40.3) scale(1 -1)" gradientUnits="userSpaceOnUse"><stop offset="0" stop-color="#fff6e7"></stop><stop offset="1" stop-color="#c77f43" stop-opacity="0"></stop></linearGradient><linearGradient id="linear-gradient28" x1="21.7" y1="70.4" x2="48.2" y2="70.4" gradientTransform="translate(-32.2 68.9) rotate(32.3) scale(1 -1)" gradientUnits="userSpaceOnUse"><stop offset="0" stop-color="#fff6e7"></stop><stop offset="1" stop-color="#c77f43" stop-opacity="0"></stop></linearGradient><linearGradient id="linear-gradient29" x1="41.8" y1="74.9" x2="34.2" y2="105.6" gradientTransform="translate(-15.9 86.6) rotate(13.4) scale(1 -1)" gradientUnits="userSpaceOnUse"><stop offset="0" stop-color="#fff6e7"></stop><stop offset="1" stop-color="#c77f43" stop-opacity="0"></stop></linearGradient><linearGradient id="linear-gradient30" x1="42.3" y1="74.1" x2="48.2" y2="74.1" gradientTransform="translate(-7.2 93.5) rotate(5.7) scale(1 -1)" gradientUnits="userSpaceOnUse"><stop offset="0" stop-color="#fff6e7"></stop><stop offset="1" stop-color="#c77f43" stop-opacity="0"></stop></linearGradient><linearGradient id="linear-gradient31" x1="47.1" y1="74.2" x2="51.9" y2="74.2" gradientTransform="translate(-28.3 -19.5) rotate(85.6) scale(1 -1)" gradientUnits="userSpaceOnUse"><stop offset="0" stop-color="#fff6e7"></stop><stop offset="1" stop-color="#c77f43" stop-opacity="0"></stop></linearGradient><linearGradient id="linear-gradient32" x1="47.2" y1="73.8" x2="58.7" y2="73.8" gradientTransform="translate(-30.6 -11) rotate(77.4) scale(1 -1)" gradientUnits="userSpaceOnUse"><stop offset="0" stop-color="#fff6e7"></stop><stop offset="1" stop-color="#c77f43" stop-opacity="0"></stop></linearGradient><linearGradient id="linear-gradient33" x1="47.2" y1="72.9" x2="65.2" y2="72.9" gradientTransform="translate(-31.9 -1.2) rotate(69.2) scale(1 -1)" gradientUnits="userSpaceOnUse"><stop offset="0" stop-color="#fff6e7"></stop><stop offset="1" stop-color="#c77f43" stop-opacity="0"></stop></linearGradient><linearGradient id="linear-gradient34" x1="47.4" y1="69.3" x2="78.4" y2="69.3" gradientTransform="translate(-30.5 23.8) rotate(51) scale(1 -1)" gradientUnits="userSpaceOnUse"><stop offset="0" stop-color="#fff6e7"></stop><stop offset="1" stop-color="#c77f43" stop-opacity="0"></stop></linearGradient><linearGradient id="linear-gradient35" x1="47.6" y1="64.2" x2="87.9" y2="64.2" gradientTransform="translate(-24.4 49.2) rotate(34.2) scale(1 -1)" gradientUnits="userSpaceOnUse"><stop offset="0" stop-color="#fff6e7"></stop><stop offset="1" stop-color="#c77f43" stop-opacity="0"></stop></linearGradient><linearGradient id="linear-gradient36" x1="47.9" y1="57.6" x2="94.2" y2="57.6" gradientTransform="translate(-13.5 75.8) rotate(16.5) scale(1 -1)" gradientUnits="userSpaceOnUse"><stop offset="0" stop-color="#fff6e7"></stop><stop offset="1" stop-color="#c77f43" stop-opacity="0"></stop></linearGradient><linearGradient id="linear-gradient37" x1="48.1" y1="54.1" x2="95.8" y2="54.1" gradientTransform="translate(-6.7 88.1) rotate(7.8) scale(1 -1)" gradientUnits="userSpaceOnUse"><stop offset="0" stop-color="#fff6e7"></stop><stop offset="1" stop-color="#c77f43" stop-opacity="0"></stop></linearGradient><linearGradient id="linear-gradient38" x1="48.2" y1="49.7" x2="96.2" y2="49.7" gradientTransform="translate(19.2 -21.1) rotate(87.3) scale(1 -1)" gradientUnits="userSpaceOnUse"><stop offset="0" stop-color="#fff6e7"></stop><stop offset="1" stop-color="#c77f43" stop-opacity="0"></stop></linearGradient><linearGradient id="linear-gradient39" x1="48.3" y1="46.3" x2="95.6" y2="46.3" gradientTransform="translate(12.8 -9.8) rotate(79.1) scale(1 -1)" gradientUnits="userSpaceOnUse"><stop offset="0" stop-color="#fff6e7"></stop><stop offset="1" stop-color="#c77f43" stop-opacity="0"></stop></linearGradient><linearGradient id="linear-gradient40" x1="48.3" y1="44.6" x2="94.9" y2="44.6" gradientTransform="translate(9.7 -3.4) rotate(74.7) scale(1 -1)" gradientUnits="userSpaceOnUse"><stop offset="0" stop-color="#fff6e7"></stop><stop offset="1" stop-color="#c77f43" stop-opacity="0"></stop></linearGradient><linearGradient id="linear-gradient41" x1="48.4" y1="38.2" x2="89.6" y2="38.2" gradientTransform="translate(0 22.1) rotate(57.9) scale(1 -1)" gradientUnits="userSpaceOnUse"><stop offset="0" stop-color="#fff6e7"></stop><stop offset="1" stop-color="#c77f43" stop-opacity="0"></stop></linearGradient><linearGradient id="linear-gradient42" x1="48.4" y1="36.2" x2="86.8" y2="36.2" gradientTransform="translate(-2.5 31.3) rotate(52) scale(1 -1)" gradientUnits="userSpaceOnUse"><stop offset="0" stop-color="#fff6e7"></stop><stop offset="1" stop-color="#c77f43" stop-opacity="0"></stop></linearGradient><linearGradient id="linear-gradient43" x1="48.5" y1="33.4" x2="82" y2="33.4" gradientTransform="translate(-5.3 45) rotate(43) scale(1 -1)" gradientUnits="userSpaceOnUse"><stop offset="0" stop-color="#fff6e7"></stop><stop offset="1" stop-color="#c77f43" stop-opacity="0"></stop></linearGradient><radialGradient id="radial-gradient3" cx="62" cy="30.7" fx="62" fy="30.7" r="17.3" gradientTransform="translate(-6.8 60.2) rotate(32.5) scale(1 -1)" gradientUnits="userSpaceOnUse"><stop offset="0" stop-color="#fff6e7"></stop><stop offset="0" stop-color="#f4dfc7" stop-opacity=".8"></stop><stop offset=".2" stop-color="#e8c6a4" stop-opacity=".6"></stop><stop offset=".4" stop-color="#deb086" stop-opacity=".4"></stop><stop offset=".5" stop-color="#d59e6e" stop-opacity=".3"></stop><stop offset=".6" stop-color="#cf905b" stop-opacity=".2"></stop><stop offset=".8" stop-color="#ca864d" stop-opacity="0"></stop><stop offset=".9" stop-color="#c78045" stop-opacity="0"></stop><stop offset="1" stop-color="#c77f43" stop-opacity="0"></stop></radialGradient><linearGradient id="linear-gradient44" x1="48.7" y1="27.4" x2="61.6" y2="27.4" gradientTransform="translate(-5.1 84) rotate(14.3) scale(1 -1)" gradientUnits="userSpaceOnUse"><stop offset="0" stop-color="#fff6e7"></stop><stop offset="1" stop-color="#c77f43" stop-opacity="0"></stop></linearGradient><linearGradient id="linear-gradient45" x1="48.8" y1="26.7" x2="55.1" y2="26.7" gradientTransform="translate(-2.6 92.6) rotate(6.3) scale(1 -1)" gradientUnits="userSpaceOnUse"><stop offset="0" stop-color="#fff6e7"></stop><stop offset="1" stop-color="#c77f43" stop-opacity="0"></stop></linearGradient><radialGradient id="radial-gradient4" cx="-795.9" cy="-470.6" fx="-795.9" fy="-470.6" r="26.5" gradientTransform="translate(447.5 -1131.5) rotate(-41.2) scale(1.3 -1.3) skewX(2.9)" gradientUnits="userSpaceOnUse"><stop offset="0" stop-color="#fffff2"></stop><stop offset="0" stop-color="#e9e9de"></stop><stop offset=".2" stop-color="#a3a39b"></stop><stop offset=".4" stop-color="#696964"></stop><stop offset=".5" stop-color="#3b3b38"></stop><stop offset=".7" stop-color="#1b1b19"></stop><stop offset=".8" stop-color="#070706"></stop><stop offset=".8" stop-color="#000"></stop></radialGradient><linearGradient id="linear-gradient46" x1="86.4" y1="50.1" x2="9.2" y2="50.7" gradientTransform="translate(0 98.4) scale(1 -1)" gradientUnits="userSpaceOnUse"><stop offset="0" stop-color="#96648a"></stop><stop offset=".2" stop-color="#bb8e91"></stop><stop offset=".4" stop-color="#e2ba99"></stop><stop offset=".5" stop-color="#f1cb9c"></stop><stop offset=".6" stop-color="#e6af78"></stop><stop offset=".7" stop-color="#dc9558"></stop><stop offset=".8" stop-color="#d58341"></stop><stop offset=".9" stop-color="#d17833"></stop><stop offset="1" stop-color="#d0752f"></stop></linearGradient></defs><g class="st16"><g id="Layer_11" data-name="Layer_1"><g><g><path class="st40" d="M140.8,44.4c-3.1-1.6-18.3-3.5-22.8-4-1.1-.1-2.2-.4-3.2-1-2.4-1.3-2.2-2.8-1-5,1.2-2.4,3-4.5,5.1-6.3,15.4-12.4,23.7-14.4,27.6-14.2,2.1,0,2.4,3.1,1.4,5-3,6.1-13.7,15.7-13.7,15.7-.9.6-.9,1.9,0,2.6l2.6,2c4.5,2.2,19.4-15,17.7-25.8-1.3-8.1-9.9-7.2-16.4-5.3-6.2,1.8-27.5,13.5-31.7,24-2.2,5.6-.3,9.2,2.1,11.4,1.8,1.7,4.1,2.7,6.4,3l15.3,2.3c12.7,2.2,4.1,7.5,4.1,7.5-15.1,9.7-18.3,6.7-18.8,4.1-.2-.9,0-1.9.3-2.8,2-4.5,1.5-5.1,1.4-5.3-.1-1.6-2.3-2.2-3.4-1-1.3,1.6-2.6,4.4-3.3,6.3-.6,1.5-.9,3.1-.7,4.8.2,2.4,1,3.4,1.4,3.8.1,0,.2.2.3.3.9,1.2,5.8,4.6,13.8,2.7.3,0,.7-.2.9-.3,12-4.1,16.6-10.5,16.6-10.5,4-4.8,3.6-11-2.1-13.9h0Z"></path><path class="st40" d="M350.7,52.9c0,.7,0,1.2,0,1.5,0,0,0,0,0,0,0-.7,0-1.2-.1-1.6Z"></path><path class="st40" d="M380.4,43.8c-1.5-2-3.3,3.6-4.5,4.7-1,1.8-5.7,6.9-4.9,1.8.5-4,2.1-8.7,2.6-12.6-.5-1.9-2.8-3.5-4.5-4.4-4-1.9-7.6,4.9-9.6,7.7,1.1-5.2,2.3-10.8,4.1-15.6,1-2.6,2.7-3.4.1-5.5-1-.9-2.7-1.8-4.1-1.8-1.9,1.4-2.6,5.4-3.7,8.4-1.4,5-2.9,11.4-3.9,16.5-.1,1.1-.5,1.2-1.3,2.6-1.3,2-7.2,10.4-9.5,7.2,0-6.6,2.3-15,4-21.6,2.7-.3,6.4-.7,8.5-.7.2,0,.4-.1.4-.3,0-.7-.7-1.8-1.5-1.9h-6.6c.6-1.5,1-3,1.8-4.1.2-.3.2-.7,0-1.2-1-1.7-3.3-3.3-5.3-3.4-2,1.4-2.6,5.7-3.7,8.8-2.1,0-4,0-5.8-.8-.8.8.5,2.8,1.3,3.6,1,1.1,2.2.6,3.5.5-1.6,5-1.3,11-4.5,15.3-1,1.6-4.2,7.1-6,4.9-.2-2.7.9-6.4,1.4-9.4,1.2-2.5,2.5-5.5,2.6-6.2.2-1.3-1.6-4.5-3.7-4.6-1,0-1.3.4-1.4,1-2.4-1.6-5.8-1-8.1.1-6.1,3.1-10,11.6-11.7,17.2-1,3.4.8,6.1,3.3,8,4.1,1.9,7.7-3.3,10-7.2.5-.9,1-1.8,1.4-2.4-.2,1.1-.5,2.2-.5,3.1-.4,3.5.6,5.6,5.2,7.1,4.4-.5,6.7-5.7,8.8-9.3-1,4.6,1.6,8.5,6.1,9.3,3.1-.1,5.5-2.2,7.4-4.7,1-1.3,1.9-2.7,2.8-4-.1,1.1-.2,2.2-.3,3,0,.4,0,.9.1,1.6h0c0,.7.1,1.3.3,1.8.9,2.6,3.2,4.1,4.8,4.5,1.9.5,2.6-.6,3-1.3.4-.6-1.2-1.7-1.7-3.5,0,0,0-.1,0-.2,0,0,0-.2,0-.3,1.5-6.8,5-14.8,9.7-19.7-1.2,6.4-3.1,12.3-2.9,18.6,4.5,7.6,9.1,3.4,12.6-2.4,1-2,4.2-6.5,3.7-8.2h0ZM323.6,39h0c0,.5-.2.9-.4,1.4-2.2,4-5.2,9.4-8.8,12.2-1.8-1,0-4.3.5-6.1,1.6-3.2,3.5-8.2,6.8-9.6,1.2.2,1.9,1.1,1.8,2.1Z"></path><path class="st40" d="M317.7,24.4c0,1.5-.6,3.1-1.8,4.8s-2.7,3.4-4.5,5-3.8,3.2-5.9,4.7-4.1,2.8-5.9,4-3.4,2.1-4.8,2.7c0,0,0,0,0,0-.2,0-1.1.5-2.6.9-.6.2-1.4.4-2.3.6-.5,1.2-1,2.3-1.5,3.5-.7,1.8-1.4,3.5-2,5.1-.6,1.6-1,3.1-1.3,4.4-.3,1.3-.5,2.4-.5,3.3s0,.6-.1.8c-.1.2-.4.2-1,.2s-.9-.2-1.4-.5-1-.7-1.4-1.2c-.4-.5-.8-1.1-1.1-1.8s-.5-1.4-.5-2.2.4-2.2,1-4.3c.6-1.9,1.4-4,2.3-6.3-2.6,0-2.6-1.6-1.9-3.1.8-1.8,2.4-3.1,4.3-3.6h.3c.4-.9.7-1.8,1.1-2.6,1.2-2.9,2.4-5.6,3.6-8.1,1.1-2.5,2.1-4.5,3-6.1.9-1.6,1.4-2.4,1.7-2.4.8,0,1.5.2,2.1.5s1.1.8,1.5,1.3.7,1,.9,1.6c.2.6.3,1,.3,1.5s-.2.4-.5,1c-.3.6-.7,1.4-1.2,2.5-.5,1-1.1,2.3-1.8,3.7s-1.4,2.9-2.1,4.5c2-.7,4.2-1.6,6.6-2.9s4.6-2.6,6.7-4.1c2.1-1.5,3.9-3.1,5.3-4.7s2.1-3,2.1-4.3-.4-2.2-1.1-2.9-1.6-1.2-2.6-1.6-1.9-.5-2.8-.6c-.9,0-1.5-.1-1.8-.1-2.1,0-4.2.3-6.5,1-2.2.7-4.3,1.6-6.4,2.7s-4,2.3-5.9,3.7c-1.8,1.4-3.5,2.7-4.8,4.1-1.4,1.4-2.5,2.7-3.3,4s-1.2,2.3-1.2,3.2,0,.4,0,.6h0c0,.4.1.8.2,1,.2.3.4.6.6.8.2.2.4.3.5.4,1.8.6,4.8-.6,4.8-.6-.9,2.9-4.4,4.3-6.7,4.8-1.3.3-3.4.2-4.6-.5-6-3.5,2.4-14.4,2.6-14.7h0c.7-1,1.5-2,2.4-3,1.5-1.6,3.2-3.1,5.1-4.6s4-2.8,6.3-4c2.2-1.1,4.6-2.1,7.1-2.8,2.5-.7,4.9-1.1,7.3-1.1s4.5.4,6.2,1.3c1.7.8,3.2,1.9,4.3,3.1,1.1,1.2,2,2.5,2.5,3.9s.8,2.6.8,3.6h0Z"></path><path class="st40" d="M323.6,39h0c0,0,0,0,0,0h0Z"></path><path class="st40" d="M267.6,43.3c-1,.2-.8.9-1.7,2.2-.9,2-8.1,11.6-6.7,4.1.9-5.5,2.4-12.2,3.8-17.8.9-3.1,1.8-7,3.3-9.2.6-.9-.6-2-1.3-2.8-1.5-1.1-4.1-3.3-5.1-.4-2.1,4.6-3.5,10.6-4.7,15.9-9.4-8.1-13.3,6.1-17.9,12.1-2.5,4.3-13.4,12.7-11.8,2.2,4.5,2,10.2-6.2,10.7-10.4.8-7.5-5-7.8-8.3-6.3-3.7,1.7-6.8,7.1-8.4,11-.9,1.4-6.1,10.8-7.9,8.1,0-4.5,2.1-9.9,2.6-14.3-.8-2.1-3.7-4.4-5.9-4.8-1.7,0-3.6.3-5.4.5,1.3-2,2.8-4.6,4.4-6.6.7-2.4-3.9-4-5.7-4.1-2.3.9-2.9,5.1-3.5,7.4-.9,3,1.7,6.4,4.7,6-2.2,5.3-5.2,10.8-9.3,15-5.6,5.4-10.4,5.4-8.8-3.6.8-3.9,2.6-9.4,6.4-10.6,2.1.3.6,3.9-.1,5.1-.5,1.1-1.4.7-1.5,1.3,2.8,5.1,6.2-2.2,5.5-5.3-1.2-2.9-5-4.9-8.2-5-6.1,1-7.2,9.8-10.4,14.2-1.1,1.6-4.2,7.1-5.9,4.9-.2-2.4.6-5.6,1.1-8.4,1.2-2.6,2.7-5.9,2.8-6.7.2-1.3-1.6-4.5-3.7-4.6-1.1,0-1.3.6-1.4,1.2-2.5-1.7-6-1.7-8-.6-5.8,3.2-10,11.6-11.7,17.2-1,3.4.8,6.1,3.3,8,4,1.8,7.4-3,9.8-6.9.6-1,1.2-2,1.6-2.8-.3,1.3-.5,2.5-.6,3.6-.2,3.2.9,5.2,5.3,6.6,4.2-.4,6.5-5.4,8.6-8.8-.2,6.4,8.5,11.2,13.6,7.4,7.1-4.9,10.1-14.2,14-21.4,1.2-.2,1.8-.5,2.7-.6-1.2,5.3-2.8,11.2-3,16.5-.1,2.2.8,4.3,2.4,5.7,4.2,3.5,8.2-1.9,11-7,0,4.4,5,7.7,8.8,8.2,4.5,0,7.7-3.4,10.2-6.8-.1,2.4,1.7,4.8,3.6,6.2,5.4,2.5,10-7.2,12.1-11.1-1,5.9-1.9,10,4.8,11.7,5.2-1.2,7.8-8.3,10.3-12.5.7-1.3,1.2-2.4-.3-2.7h0ZM226.9,44c5.6-12.2,10.7-3-1.1,3.3.3-1.1.6-2.2,1.1-3.3ZM157.2,52.6c-1.8-1,0-4.3.5-6.1,1.6-3.2,3.5-8.2,6.8-9.6,1.7.3,2.3,1.8,1.4,3.5-2.2,4-5.2,9.4-8.8,12.2h0ZM254,40.4c-2,3.8-5.6,9.4-8.8,12-1.9-1,0-4.6.6-6.4,1.6-3.2,3.6-7.5,6.6-9.3,2,0,2.3,2.2,1.6,3.6Z"></path></g><path class="st40" d="M119.4,75l-2.4,12.1h-3.4l2.4-12.1h3.4ZM129,78.1c-.6-.3-1.2-.5-2-.5s-1.4.2-2,.5c-.3.2-.6.4-.9.6l.2-1h-3.1l-1.9,9.4h3.3l.9-4.7c.1-.7.4-1.2.8-1.6s.9-.5,1.4-.5.9.2,1.1.5c.2.3.2.8.1,1.4l-1,4.9h3.3l1-5.2c.2-1,.2-1.8,0-2.4-.2-.6-.6-1.1-1.2-1.5h0ZM143.9,74.3l-2.6,12.9h-3.1l.2-.9c-.2.2-.5.4-.8.6-.6.3-1.2.5-2,.5s-1.3-.2-1.9-.5c-.6-.3-1.1-.8-1.5-1.5-.4-.6-.6-1.4-.6-2.3s.1-1.5.4-2.2c.3-.7.6-1.2,1.1-1.7s1-.9,1.6-1.1c.6-.3,1.3-.4,2-.4s1.3.1,1.8.3c.4.2.8.5,1.1.9l.9-4.6h3.3,0ZM138.8,83.4c.2-.4.3-.8.3-1.4s-.2-1-.5-1.3c-.3-.3-.8-.5-1.3-.5s-.8.1-1.1.3c-.3.2-.6.5-.8.9s-.3.8-.3,1.4.2,1,.5,1.3.8.5,1.3.5.8-.1,1.2-.3.6-.5.8-.9h0ZM147.5,76.7c.6,0,1.1-.2,1.5-.5s.6-.8.6-1.4-.2-.8-.5-1.1c-.4-.3-.8-.4-1.4-.4s-1.1.2-1.5.5-.6.8-.6,1.3.2.8.5,1.2c.3.3.8.5,1.4.5h0ZM145.4,77.8l-1.9,9.4h3.3l1.9-9.4h-3.3ZM157.7,77.8h3.1l-1.5,7.7c-.4,1.9-1.1,3.2-2.1,4s-2.4,1.2-4.1,1.2-1.8,0-2.6-.3c-.8-.2-1.4-.5-2-.9l1.5-2.3c.4.3.8.5,1.4.7s1.2.3,1.8.3,1.5-.2,1.9-.6c.4-.4.7-.9.8-1.6v-.3c0,.2-.3.3-.4.4-.6.4-1.3.6-2.1.6s-1.4-.2-2.1-.5c-.6-.3-1.1-.8-1.5-1.4-.4-.6-.6-1.3-.6-2.2s.1-1.4.4-2c.3-.6.6-1.2,1.1-1.6s1-.8,1.6-1.1c.6-.3,1.3-.4,2-.4s1.3.1,1.9.4.9.7,1.2,1.2l.3-1.5h0ZM156.3,83c.2-.3.3-.7.3-1.2s-.1-.8-.5-1.1c-.3-.3-.7-.4-1.3-.4s-.8,0-1.2.3c-.3.2-.6.5-.8.8-.2.3-.3.7-.3,1.2s.2.8.5,1.1c.3.3.8.4,1.3.4s.8,0,1.1-.3c.3-.2.6-.4.8-.8h0ZM171.2,79.6c.4.6.6,1.3.6,2.2s0,.5,0,.8c0,.2,0,.5-.1.8h-6.9c0,.5.2.8.5,1.1.4.3.9.5,1.6.5s.8,0,1.2-.2.8-.3,1.1-.6l1.4,2.1c-.6.4-1.2.8-1.9.9-.7.2-1.4.3-2.1.3-1,0-1.9-.2-2.6-.5s-1.3-.8-1.7-1.5-.6-1.4-.6-2.3.2-2,.7-2.8,1.1-1.5,2-1.9c.9-.5,1.9-.7,3-.7s1.8.2,2.5.5,1.2.8,1.6,1.4h0ZM164.9,81.4s0,0,0,.1h3.9c0-.2,0-.4-.1-.6-.1-.3-.3-.5-.6-.7-.3-.2-.6-.2-1.1-.2s-1,.1-1.3.4c-.3.3-.6.6-.8,1.1h0ZM182,78.1c-.6-.3-1.2-.5-2-.5s-1.4.2-2,.5c-.3.2-.6.4-.9.6l.2-1h-3.1l-1.9,9.4h3.3l.9-4.7c.1-.7.4-1.2.8-1.6s.9-.5,1.4-.5.9.2,1.1.5c.2.3.2.8.1,1.4l-1,4.9h3.3l1-5.2c.2-1,.2-1.8,0-2.4-.2-.6-.6-1.1-1.2-1.5h0ZM194.7,79.6c.4.6.6,1.4.6,2.3s-.2,2-.8,2.8-1.2,1.5-2.1,1.9-1.9.7-3,.7-1.9-.2-2.6-.5-1.3-.9-1.7-1.5c-.4-.6-.6-1.4-.6-2.2s.2-2,.8-2.8,1.2-1.5,2.1-1.9c.9-.5,1.9-.7,3-.7s1.9.2,2.6.5,1.3.8,1.7,1.5ZM192,82c0-.5-.1-.9-.5-1.3-.3-.3-.7-.5-1.3-.5s-.8.1-1.2.3c-.3.2-.6.5-.8.9s-.3.9-.3,1.4.2,1,.5,1.3.8.5,1.3.5.8-.1,1.2-.3c.3-.2.6-.5.8-.9.2-.4.3-.9.3-1.4ZM204.3,77.8l-.9,4.7c-.1.7-.4,1.2-.8,1.6-.4.3-.8.5-1.4.5s-.9-.2-1.1-.5c-.2-.3-.2-.8-.1-1.4l1-4.9h-3.3l-1,5.2c-.2,1-.2,1.8,0,2.4.2.7.6,1.1,1.2,1.5s1.2.5,2,.5,1.4-.2,2-.5c.3-.2.6-.4.9-.6l-.2,1h3.1l1.9-9.4h-3.3,0ZM212,80.1c.2-.1.6-.2,1.2-.2s.9,0,1.4.2,1,.3,1.4.6l1.2-2.3c-.5-.2-1-.4-1.6-.6-.6-.1-1.3-.2-1.9-.2-.9,0-1.8.1-2.6.4s-1.4.6-1.8,1.2-.7,1.1-.7,1.9.1,1,.4,1.3.5.6.9.7c.4.2.8.3,1.2.4.4,0,.8.2,1.2.2.4,0,.7.1.9.2.2,0,.4.2.4.4s-.1.4-.4.5c-.2.1-.6.2-1.2.2s-1.1,0-1.7-.2c-.6-.2-1.1-.4-1.5-.6l-1.2,2.3c.4.2,1,.5,1.7.7s1.5.3,2.4.3,1.8-.1,2.5-.4,1.4-.6,1.8-1.2.7-1.1.7-1.9-.1-.9-.4-1.3c-.2-.3-.5-.6-.9-.7s-.8-.3-1.2-.4-.8-.2-1.2-.2-.7-.1-.9-.2c-.2,0-.4-.2-.4-.4s.1-.4.4-.5h0ZM240.3,75l-4.1,7.9-.9-7.9h-3.2l-4.1,7.8-.9-7.8h-3.4l1.5,12.1h3.7l3.9-7.3.9,7.3h3.7l6.4-12.1h-3.4ZM251.7,79.6c.4.6.6,1.3.6,2.2s0,.5,0,.8c0,.2,0,.5-.1.8h-6.9c0,.5.2.8.5,1.1.4.3.9.5,1.6.5s.8,0,1.2-.2.8-.3,1-.6l1.4,2.1c-.6.4-1.2.8-1.9.9-.7.2-1.4.3-2.1.3-1,0-1.9-.2-2.6-.5s-1.3-.8-1.7-1.5-.6-1.4-.6-2.3.2-2,.7-2.8,1.1-1.5,2-1.9,1.9-.7,3-.7,1.8.2,2.5.5,1.2.8,1.6,1.4h0ZM245.4,81.4s0,0,0,.1h3.9c0-.2,0-.4-.1-.6-.1-.3-.3-.5-.6-.7-.3-.2-.6-.2-1.1-.2s-1,.1-1.3.4c-.3.3-.6.6-.8,1.1h0ZM255.3,74.3l-2.6,12.9h3.3l2.6-12.9h-3.3ZM260.7,74.3l-2.6,12.9h3.3l2.6-12.9h-3.3ZM273.3,78.1c-.5-.3-1.2-.5-2-.5s-1.4.2-2,.5c-.3.2-.6.4-.9.6l.2-1h-3.1l-1.9,9.4h3.3l.9-4.6c.1-.7.4-1.2.8-1.6s.9-.5,1.4-.5.9.2,1.1.5c.2.3.2.8.1,1.4l-1,4.9h3.3l1-5.2c.2-1,.2-1.8,0-2.4s-.6-1.1-1.2-1.5h0ZM285.7,79.6c.4.6.6,1.3.6,2.2s0,.5,0,.8c0,.2,0,.5-.1.8h-6.9c0,.5.2.8.5,1.1.4.3.9.5,1.6.5s.8,0,1.2-.2.8-.3,1-.6l1.4,2.1c-.6.4-1.2.8-1.9.9-.7.2-1.4.3-2.1.3-1,0-1.9-.2-2.6-.5s-1.3-.8-1.7-1.5c-.4-.6-.6-1.4-.6-2.3s.2-2,.7-2.8,1.1-1.5,2-1.9,1.9-.7,3-.7,1.8.2,2.5.5,1.2.8,1.6,1.4h0ZM279.4,81.4s0,0,0,.1h3.9c0-.2,0-.4-.1-.6-.1-.3-.3-.5-.6-.7-.3-.2-.6-.2-1-.2s-1,.1-1.3.4c-.3.3-.6.6-.8,1.1h0ZM294.1,81.9c-.4-.2-.8-.3-1.2-.4s-.8-.2-1.2-.2-.7-.1-.9-.2-.4-.2-.4-.4.1-.4.4-.5.6-.2,1.2-.2.9,0,1.4.2,1,.3,1.4.6l1.2-2.3c-.5-.2-1-.4-1.6-.6-.6-.1-1.3-.2-1.9-.2-1,0-1.8.1-2.6.4s-1.4.6-1.8,1.1c-.4.5-.7,1.1-.7,1.9s.1,1,.4,1.3.5.6.9.7c.4.2.8.3,1.2.4.4,0,.8.2,1.2.2.4,0,.7.1.9.2s.4.2.4.4-.1.4-.4.5c-.2.1-.6.2-1.2.2s-1.1,0-1.7-.2c-.6-.2-1.1-.4-1.5-.6l-1.2,2.3c.4.2,1,.5,1.7.7s1.5.3,2.4.3,1.8-.1,2.5-.4,1.4-.6,1.8-1.1c.4-.5.7-1.1.7-1.9s-.1-.9-.4-1.3-.5-.6-.9-.7h0ZM300.4,80.2c.2-.1.6-.2,1.2-.2s.9,0,1.4.2,1,.3,1.4.6l1.2-2.3c-.5-.2-1-.4-1.6-.6-.6-.1-1.3-.2-1.9-.2-1,0-1.8.1-2.6.4s-1.4.6-1.8,1.1c-.4.5-.7,1.1-.7,1.9s.1,1,.4,1.3.5.6.9.7c.4.2.8.3,1.2.4.4,0,.8.2,1.2.2.4,0,.7.1.9.2s.4.2.4.4-.1.4-.4.5c-.2.1-.6.2-1.2.2s-1.1,0-1.7-.2c-.6-.2-1.1-.4-1.5-.6l-1.2,2.3c.4.2,1,.5,1.7.7s1.5.3,2.4.3,1.8-.1,2.5-.4,1.4-.6,1.8-1.1c.4-.5.7-1.1.7-1.9s-.1-.9-.4-1.3-.5-.6-.9-.7-.8-.3-1.2-.4-.8-.2-1.2-.2-.7-.1-.9-.2-.4-.2-.4-.4.1-.4.4-.5h0ZM319.3,84.3c-.5.2-1,.3-1.6.3s-1.1-.1-1.6-.3c-.4-.2-.8-.5-1-.9-.2-.4-.4-.9-.4-1.4s0-1.2.3-1.7.5-1,.8-1.3c.4-.4.8-.7,1.2-.9.5-.2,1-.3,1.6-.3s1.1.1,1.6.4c.4.2.8.6,1.1,1.1l2.5-2c-.4-.7-1.1-1.3-1.9-1.7-.9-.4-1.9-.6-3-.6s-2.2.2-3.1.5-1.7.9-2.4,1.5c-.7.7-1.2,1.4-1.6,2.3s-.5,1.9-.5,2.9.2,2,.7,2.8c.5.8,1.2,1.4,2.1,1.9s2,.7,3.2.7,2.1-.2,3-.5c.9-.3,1.7-.9,2.4-1.7l-2-2c-.4.5-.9.8-1.4,1.1h0ZM333.1,79.6c.4.6.6,1.3.6,2.2s0,.5,0,.8c0,.2,0,.5-.1.7h-6.9c0,.5.2.8.5,1.1.4.3.9.5,1.6.5s.8,0,1.2-.2.8-.3,1-.6l1.4,2.1c-.6.4-1.2.8-1.9.9s-1.4.3-2.1.3c-1,0-1.9-.2-2.6-.5s-1.3-.8-1.7-1.5c-.4-.6-.6-1.4-.6-2.3s.2-2,.7-2.8,1.1-1.4,2-1.9,1.8-.7,3-.7,1.8.2,2.5.5c.7.3,1.2.8,1.6,1.4h0ZM326.8,81.5s0,0,0,.1h3.9c0-.2,0-.4-.1-.6-.1-.3-.3-.5-.6-.7s-.6-.2-1-.2-1,.1-1.3.4c-.3.3-.6.6-.8,1.1h0ZM343.9,78.1c-.5-.3-1.2-.5-2-.5s-1.4.2-2,.5c-.3.2-.6.4-.9.6l.2-.9h-3.1l-1.9,9.4h3.3l.9-4.6c.1-.7.4-1.2.8-1.6s.9-.5,1.4-.5.9.2,1.1.5c.2.3.2.8.1,1.4l-1,4.9h3.3l1-5.2c.2-1,.2-1.8,0-2.4s-.6-1.1-1.2-1.4h0ZM352.1,75.7h-3.3l-.5,2.4h-1.4l-.5,2.4h1.4l-.6,3.1c-.1.8-.1,1.4.1,2,.2.6.6,1,1.1,1.2s1.1.4,1.9.4.9,0,1.3-.1.8-.2,1.1-.4l-.4-2.3c-.2,0-.3.2-.5.2-.2,0-.3,0-.5,0-.3,0-.6,0-.7-.3-.1-.2-.2-.5-.1-.8l.6-3.1h2.1l.5-2.4h-2.1l.5-2.4h0ZM363.6,79.6c.4.6.6,1.3.6,2.2s0,.5,0,.8c0,.2,0,.5-.1.7h-6.9c0,.5.2.8.5,1.1.4.3.9.5,1.6.5s.8,0,1.2-.2.8-.3,1-.6l1.4,2.1c-.6.4-1.2.8-1.9.9s-1.4.3-2.1.3c-1,0-1.9-.2-2.6-.5s-1.3-.8-1.7-1.5c-.4-.6-.6-1.4-.6-2.3s.2-2,.7-2.8,1.1-1.4,2-1.9,1.8-.7,3-.7,1.8.2,2.5.5c.7.3,1.2.8,1.6,1.4h0ZM357.4,81.5s0,0,0,.1h3.9c0-.2,0-.4-.1-.6-.1-.3-.3-.5-.6-.7s-.6-.2-1-.2-1,.1-1.3.4c-.3.3-.6.6-.8,1.1h0ZM370.4,78.1c-.4.2-.7.4-1,.7l.2-1h-3.1l-1.9,9.4h3.3l.9-4.4c.1-.8.5-1.3.9-1.7s1-.5,1.8-.5h.4c.1,0,.2,0,.4,0l.6-3c-.9,0-1.7.2-2.4.5h0Z"></path></g><g class="st59"><g><g><g><circle class="st45" cx="48.7" cy="48.1" r="30.3"></circle><path class="st57" d="M48.2,4.3C23.9,4.3,4.3,23.9,4.3,48.2s19.7,43.9,43.9,43.9,43.9-19.7,43.9-43.9S72.5,4.3,48.2,4.3ZM75.5,58.1v.2h.1s0,0,0,0h0s-.2,0-.2,0l-3.1,1,1.3,3v.2h.1s0,0,0,0h0s-.2,0-.2,0l-3.3.5.8,3.2v.2h0,0s0,0,0,0h-3.5s.2,3.3.2,3.3v.2h0,0s0,0,0,0h-.2s-3.3-.6-3.3-.6l-.3,3.3v.2s0,0,0,0h0s0,0,0,0h0s0,0,0,0h-.2c0,0-3.2-1.1-3.2-1.1l-.9,3.2h0c0,.1,0,.1,0,.1h0s0,0,0,0h0s0,0,0,0h-.1c0,0-2.9-1.7-2.9-1.7l-1.4,3.1h0c0,.1,0,.1,0,.1h0s0-.1,0-.1l-2.7-2.1-1.8,2.8h0c0,.1,0,.1,0,.1h0,0s0-.1,0-.1l-2.3-2.4-2,2.1-1.7-2.4-2.1,1.7-1.3-2.4-2.8,1.7h-.1c0,.1,0,.1,0,.1h0,0s0-.2,0-.2l-1-3.1-3,1.3h-.2c0,0,0,0,0,0h0s0,0,0,0v-.2s-.5-3.2-.5-3.2l-3.2.7h-.2c0,0,0,0,0,0h0s0,0,0,0v-3.5s-3.2.2-3.2.2h-.2s0,0,0,0h0s0,0,0,0v-.2s.6-3.2.6-3.2l-3.2-.3h-.3s0,0,0,0h0s0,0,0,0h0v-.2c0,0,1.2-3,1.2-3l-3.1-.8h-.3c0,0,0,0,0,0h0s0,0,0,0h0v-.2c.1,0,1.7-2.8,1.7-2.8l-2.9-1.3h-.3c0-.1,0,0,0,0h0s0,0,0,0l.2-.2,2-2.5-2.7-1.8-.3-.2h0s0,0,0,0h0s0,0,0,0l.2-.2,2.3-2.2-2.4-2.2-.2-.2h0s0,0,0,0h0s0,0,0,0l.2-.2,2.7-1.8-2-2.5-.2-.2h0s0,0,0,0h0s0,0,0,0h.2c0-.1,2.9-1.4,2.9-1.4l-1.6-2.8v-.2h-.2s0,0,0,0h.2c0,0,3.1-.9,3.1-.9l-1.1-3.1v-.2h-.1s0,0,0,0h0s.2,0,.2,0l3.3-.3-.6-3.2v-.2h0,0s0,0,0,0h.2l3.3.2v-3.3s0-.2,0-.2h0,0s0,0,0,0h0s.2,0,.2,0l3.2.7.5-3.3h0c0-.1,0-.1,0-.1h0s0,0,0,0h0s0,0,0,0h.1s3.1,1.3,3.1,1.3l1-3.2h0c0,0,0,0,0,0l2.9,1.8,1.6-3h0c0,0,0,0,0,0h0s0,0,0,0l2.6,2.2,2-2.7h0s0,0,0,0h0,0s0,0,0,0l2.2,2.6,2.5-2.4h0s0,0,0,0h0,0s0,0,0,0l1.7,3,2.8-2h0c0,0,0,0,0,0h0s0,0,0,0h0s1.2,3.2,1.2,3.2l3.1-1.5h0c0,0,0,0,0,0h0s0,0,0,0h0c0,0,.7,3.4.7,3.4l3.3-.9h0c0,0,0,0,0,0h0s0,0,0,0h0c0,0,.2,3.5.2,3.5l3.3-.4h.1s0,0,0,0h0s0,0,0,0h0c0,.1-.4,3.4-.4,3.4h3.3c0,.1.2.1.2.1h0s0,0,0,0h0s0,0,0,0h0c0,.1-.9,3.3-.9,3.3l3.3.7h.2s0,0,0,0h0s0,0,0,0h0v.2c0,0-1.5,3-1.5,3l3.1,1.2h.2c0,0,0,0,0,0h0s0,0,0,0h-.1c0,.1-1.9,2.8-1.9,2.8l2.8,1.7h.2c0,0,0,0,0,0h0s0,0,0,0h-.1c0,.1-2.3,2.5-2.3,2.5l2.5,2.1h.2c0,.1,0,.1,0,.1h0s0,0,0,0h-.2c0,.1-2.6,2.1-2.6,2.1l2.2,2.5v.2h.2s0,0,0,0h0s-.2,0-.2,0l-2.9,1.5,1.7,2.8h0ZM38,20.9h0,0,0Z"></path><path class="st41" d="M48.2,4.3C23.9,4.3,4.3,23.9,4.3,48.2s19.7,43.9,43.9,43.9,43.9-19.7,43.9-43.9S72.5,4.3,48.2,4.3ZM85.9,57.4c-.3.9-.8,1.8-1.2,2.7-.7,1.8-1.3,3.6-1.6,5.4,0,.2,0,.3,0,.5h0c-.1.8-.4,1.4-.9,2-.2.2-.4.3-.6.5,0,.4-.2.8-.4,1.1-1.3,1.8-2.6,3.7-4.1,5.4s-3.2,3.2-5.2,4.4c-3.9,2.5-8.3,4.1-12.5,5.9.3-.1.6-.2.8-.3-1.1.5-2.2.9-3.3,1.2-1.2.3-2.4.5-3.6.6-1.9.2-3.8.3-5.7.2-3.6-.2-7.3-.6-10.7-1.5-3.4-.9-6.7-2.6-9.5-4.7-1.6-1.2-3.2-2.6-4.5-4-1.2-1.3-2.4-2.6-3.7-3.7-2.6-2.3-5.4-4.8-6.1-8.3-.2-1,0-2,.5-2.8-.5-.7-.9-1.5-1.1-2.4-.3-1.3-.4-2.7-.5-4-.2-1.6-.6-3.2-.7-4.9-.1-1.8-.2-3.5-.2-5.3,0-5.7-.1-12,2.9-17.1,1.6-2.7,4-4.6,6.4-6.5,1.2-1,2.5-1.9,3.8-2.9,0,0,0,0,.2-.1,0,0,.2-.1.2-.1.2-.2.5-.4.7-.6.2-.2.5-.5.7-.7.2-.2.9-1.1.2-.1.6-.8,1.2-1.3,2.1-1.6.4-.1.8-.2,1.2-.1.5-.8,1.2-1.4,2.1-1.6,3.9-1,7.5-3.1,11.5-3.8,2.4-.4,4.8-.1,7.2.4,1.8.4,3.5,1,5.3,1.3,2,.2,4,.3,5.8,1,1.9.7,3.6,1.8,5.4,2.6,1.8.7,3.6,1,5.3,1.9,1.6.8,3.1,1.9,4.3,3.2,2.2,2.2,4,4.9,5.6,7.6.7,1.3,1.4,2.6,2.1,3.9.9,1.6,1.7,3.3,2.2,5.2,1,4,.4,7.9.5,11.9,0,1.7.2,3.5,0,5.2-.1,1.1-.2,2.2-.6,3.2h0Z"></path><path class="st0" d="M20.1,31c.1-.1.2-.3.3-.4-.1.1-.2.2-.3.4Z"></path><polygon class="st53" points="38 20.9 38 20.9 38 20.9 38 20.9"></polygon><path class="st46" d="M90.2,51.2c-.8-.1-1.1-.7-1.1-1.3s.4-1.3,1.2-1.3c.8,0,1.2-.7,1.2-1.3s-.4-1.3-1.3-1.3c-.8,0-1.3-.7-1.3-1.3s.3-1.1,1.1-1.3c1.6-.3,1.3-2.6-.2-2.6h-.1c-.9,0-1.4-.6-1.4-1.3s.3-1,.9-1.2c1.5-.5,1-2.6-.4-2.6s-.2,0-.3,0c-1,.2-1.6-.6-1.6-1.3s.2-.9.7-1.2c1.3-.7.7-2.5-.6-2.5s-.3,0-.5,0c-1,.3-1.8-.5-1.8-1.3s.2-.8.6-1.1c1.2-.8.5-2.5-.7-2.5s-.4,0-.6.2c-1.4.7-2.6-1.2-1.5-2.2h0c1-.9.2-2.4-.9-2.4s-.5,0-.8.2c-1,.7-2.1-.2-2.1-1.1s.1-.6.3-.9c.9-1,0-2.2-1-2.2s-.6.1-.9.3c-.9.8-2.2,0-2.2-1s0-.5.2-.8c.9-1.4-1-2.9-2.1-1.6h0c-.9,1-2.3.2-2.3-.9s0-.4.2-.6c.5-1-.3-2-1.2-2s-.8.2-1.1.6c-.8,1.1-2.4.5-2.4-.7s0-.3,0-.5c.4-1-.4-1.8-1.3-1.8s-.9.2-1.1.7c-.7,1.3-2.5.7-2.5-.6s0-.2,0-.3c.2-1-.6-1.6-1.3-1.6s-1,.3-1.2.9c-.5,1.4-2.6,1-2.6-.4v-.2c0-.9-.6-1.5-1.3-1.5s-1.1.3-1.3,1c-.3,1.5-2.6,1.3-2.6-.3,0-.9-.7-1.3-1.3-1.3s-1.2.4-1.3,1.2c0,.8-.7,1.2-1.3,1.2s-1.2-.4-1.3-1.1c-.2-1.6-2.6-1.4-2.6.2h0c0,.9-.7,1.4-1.3,1.4s-1.1-.3-1.3-1c-.4-1.5-2.6-1.1-2.6.3s0,.1,0,.2c.1.9-.6,1.5-1.3,1.5s-1-.2-1.2-.8c-.6-1.4-2.6-.9-2.6.5s0,.3,0,.4c.4,1.5-1.7,2.4-2.4,1h0c-.7-1.3-2.5-.6-2.5.6s0,.4.1.6c.4,1-.4,1.9-1.2,1.9s-.8-.2-1-.5c-.8-1.1-2.4-.3-2.4.8s0,.4.2.7c.6,1-.2,2-1.2,2s-.6-.1-.9-.4c-.9-1-2.3-.1-2.3.9s0,.5.3.8c.7,1,0,2.1-1.1,2.1s-.6,0-.8-.3c-1-.8-2.2,0-2.2,1.1s.1.6.4.9c.9.9.1,2.3-.9,2.3s-.5,0-.7-.2c-1-.6-2,.2-2,1.2s.1.7.5,1c1.1.8.3,2.4-.8,2.4s-.4,0-.6-.1c-1-.5-1.9.4-1.9,1.2s.2.8.6,1.1c1.2.7.6,2.5-.6,2.5s-.3,0-.4,0c-1-.3-1.7.5-1.7,1.3s.2.9.8,1.2c1.4.6.9,2.5-.5,2.5s-.2,0-.2,0c-1-.2-1.6.6-1.6,1.3s.3,1,.9,1.2c1.5.4,1.1,2.6-.4,2.6h0c-.9,0-1.4.7-1.4,1.3s.4,1.2,1.1,1.3c.8.1,1.1.7,1.1,1.3s-.4,1.3-1.2,1.3c-.8,0-1.2.7-1.2,1.3s.4,1.3,1.3,1.3c.8,0,1.3.7,1.3,1.3s-.3,1.1-1.1,1.3c-1.6.3-1.3,2.6.2,2.6h.1c.9,0,1.5.6,1.5,1.3s-.3,1-.9,1.2c-1.5.5-1,2.6.4,2.6s.2,0,.3,0c1-.2,1.6.6,1.6,1.3s-.2.9-.7,1.2c-1.3.7-.7,2.5.5,2.5s.3,0,.5,0c1-.3,1.8.5,1.8,1.3s-.2.8-.6,1.1c-1.2.8-.5,2.4.7,2.4s.4,0,.6-.2c1.4-.7,2.6,1.2,1.5,2.2h0c-1,.9-.2,2.3.9,2.3s.5,0,.8-.2c1-.7,2.1.2,2.1,1.1s-.1.6-.4.9c-.9,1,0,2.2,1,2.2s.6,0,.9-.3c1-.8,2.2,0,2.2,1s0,.5-.2.8c-1,1.4,1,2.9,2.1,1.7h0c.9-1,2.3-.2,2.3.9s0,.4-.2.6c-.5,1,.3,2,1.2,2s.8-.2,1.1-.6c.8-1.1,2.4-.5,2.4.7s0,.3,0,.5c-.4,1,.5,1.8,1.3,1.8s.9-.2,1.1-.7c.7-1.3,2.5-.7,2.5.6s0,.2,0,.3c-.2,1,.5,1.6,1.3,1.6s1-.3,1.2-.9c.5-1.4,2.6-1,2.6.4v.2c0,.9.6,1.5,1.3,1.5s1.1-.3,1.3-1c.2-.7.7-1,1.3-1s1.3.5,1.3,1.3c0,.9.7,1.3,1.3,1.3s1.2-.4,1.3-1.2c0-.8.7-1.2,1.3-1.2s1.2.4,1.3,1.1c.2,1.6,2.6,1.4,2.6-.2h0c0-.9.7-1.4,1.3-1.4s1.1.3,1.3,1c.4,1.5,2.6,1.1,2.6-.3s0-.2,0-.2c-.1-.9.6-1.5,1.3-1.5s1,.2,1.2.8c.6,1.4,2.6.8,2.6-.5s0-.3,0-.4c-.3-1,.5-1.7,1.3-1.7s.8.2,1.1.7c.7,1.3,2.5.6,2.5-.6s0-.4-.1-.6c-.4-1,.4-1.9,1.2-1.9s.8.2,1,.5c.8,1.1,2.4.3,2.4-.8s0-.4-.2-.7c-.6-1,.2-2,1.2-2s.7.1.9.4c.9.9,2.3.1,2.3-.9s0-.5-.3-.8c-.7-1,0-2.2,1.1-2.2s.6,0,.8.3c1,.8,2.2,0,2.2-1.1s-.1-.6-.4-.9c-.9-.9-.1-2.3.9-2.3s.5,0,.7.2c1,.6,2-.2,2-1.2s-.2-.7-.5-1c-1.1-.8-.3-2.4.8-2.4s.4,0,.6.1c1,.5,1.9-.4,1.9-1.2s-.2-.8-.7-1.1c-1.2-.7-.6-2.5.7-2.5s.3,0,.4,0c1,.3,1.7-.5,1.7-1.3s-.2-.9-.8-1.2c-1.3-.6-.8-2.5.5-2.5s.2,0,.2,0c1,.2,1.6-.6,1.6-1.3s-.3-1-.9-1.2c-1.5-.4-1.1-2.6.4-2.6h0c.9,0,1.4-.7,1.4-1.3s-.3-1.2-1.1-1.3h0ZM48.2,84.7c-20.2,0-36.5-16.4-36.5-36.5S28,11.6,48.2,11.6s36.6,16.4,36.6,36.5-16.4,36.5-36.6,36.6Z"></path><path class="st48" d="M48.2,16c-17.8,0-32.2,14.4-32.2,32.2s14.4,32.2,32.2,32.2,32.2-14.4,32.2-32.2S66,16,48.2,16ZM48.2,77.3c-16.1,0-29.1-13-29.1-29.1s13-29.1,29.1-29.1,29.1,13,29.1,29.1-13,29.1-29.1,29.1Z"></path><path class="st55" d="M48.2,8.3c-22,0-39.9,17.9-39.9,39.9s17.9,39.9,39.9,39.9,39.9-17.9,39.9-39.9S70.2,8.3,48.2,8.3ZM48.2,80.4c-17.8,0-32.2-14.4-32.2-32.2S30.4,16,48.2,16s32.2,14.4,32.2,32.2-14.4,32.2-32.2,32.2Z"></path><path class="st54" d="M48.2,0C21.6,0,0,21.6,0,48.2s21.6,48.2,48.2,48.2,48.2-21.6,48.2-48.2S74.8,0,48.2,0ZM48.2,92.1c-24.3,0-43.9-19.7-43.9-43.9S23.9,4.3,48.2,4.3s43.9,19.7,43.9,43.9-19.7,43.9-43.9,43.9Z"></path></g><g><g><path class="st58" d="M32.8,65.3s-.9.2-.9-1.4c0,0-.3,0-.2-.6s-.1-1,.5-1.3,1-.9,1.1-1.5,0-1.9.1-2,1.1,0,1.2-.2.3-2,.2-2.5.9-.8.7-1.6-1.8-1.2-2-1.4-.7-.4-.7-.7-.2-1.2-.2-1.2h-1.1s.1-.6-.6-1-1.1-.4-1.1-.4h-.5s-.5.3-.7,1-.2,1.5-.2,1.5h-.2s-.2.3-.2,1.4.6,2.8,1.2,3.3c0,0,.6.1.6.9s0,2.3,0,2.4,0,1.9.3,2.5.4,2.7,1.7,3.1c0,0,.9.2,1.2,0s-.4-.2-.4-.2h0Z"></path><polygon class="st58" points="32.9 64.9 33.3 64.9 33.3 64.6 32.9 64.6 32.9 64.9"></polygon><path class="st58" d="M34.2,38.2c0-.2.2-.9,0-1.1-.1-.2-.5.7-.6.4-.2-.2-.1-.6-.3-.7-.2,0-.3-.1-.6.3-.3.4-.7,1.4-1,1.9-.3.6-.6.8-.6.6,0-.2,0-.4.2-.6.1-.2,0-.5-.2-.5s-.3.4-.4,0-.3-.6,0-.7.8-.6,1-.8.6-.5.8-.4c.2,0,.3-.2.6-.5.3-.2.3-.5,0-.5s-.5-.2-.5-.4-.4-.3-.5-.2c-.2,0-.3.5,0,.5.2,0,.4.2,0,.2-.3,0-.6.2-.6,0s0-.7-.3-.5c-.3.2-.4.6-.4.4,0-.2-.2-.4-.3-.2,0,.1-.5.3-.5.3,0,0,0,.2,0,.2s-.2,0-.2,0c0,.2.1.3.3.2.1,0,.1-.2.3-.2.2,0,.2.3,0,.4s-.4.3-.2.2c.2,0,.5,0,.5,0s0,.2-.2.2-.9-.2-1.2-.2c-.3,0-.6.3-.9.4-.3,0-1.9.2-1.9.2,0,0-1.1.5-1.9,1.4,0,0-.2.3,0,.3s.3,0,.3,0l-.5.2s-.4.2-.5.7c0,.4-.4.8-.5.9.2-.2,1.3-1.2,2.1-1.4,0,0,.5,0,.6,0,0,.2,0,.8,0,.8,0,0-.2.3-.1.8,0,0-.4.1-.4.4,0,.3.2.2.3.2,0,0-.5.4-.7,1,0,.6-.3.5-.4.8,0,.3,0,1.1.1,1.6.1.5-.2.3-.2.7s0,1.1.2,1.3c.2.2.5.3.5.3,0,0,0-.3-.2-.5s0-.9,0-.9c0,0,0-.3,0-.4,0,0,0-.6.2-.5.1,0,0,.4,0,.6s.2.9.2.9c0,0-.1,1.1.1,1.5.3.5.9.8,1,.7.1-.1.2-.3.2-.3,0,0,0,.6.3.6s.4-.2.5.3c0,.5,0,.8.4,1.1.4.3.5,0,.5,0h-.2c0-.1-.3-.8-.2-1.1.1-.2.2-.8.2-.8h-.5v-.6l.5-.6h-.5c-.2,0-.5.9-.6.8,0,0-.3,0-.3,0,0,0,0-.8,0-1.2s.3-1.2.5-1.3.8-.2.8-.2l.3-.4h.2c0,0,.3.2.3.2v.6c0,.1,0,.5.2.5s.5,0,.5,0l-.3-.6v-.5s0-.7.3-1c.4-.3.9-.7.9-.8v-.5s.6-1.1,1.7-1.8c0,0,.3,0,.6-.1.3-.1.5-.4.5-.4l-.2-.3.2-.5v-.3h-.2c0-.1.7-.2.7-.2v-.4h.5v.3l-.3.2v.5c0,0,.8,0,.8,0,0,0,0-.6,0-.7s-.2-.2-.2-.4c0-.2.3,0,.3-.2s-.5-.2-.5-.4h0ZM30.4,41.7c-.1,0-.5.4-.6.5s-.4,0-.4,0c0,0,0-.3.2-.5.2-.2-.2-.3-.2-.3,0,0,.4-.1.3-.2-.1-.1-.3-.1-.1-.4.2-.3.6-.6.7-.3,0,.2,0,.7.2.7.2,0,.3.2.3.2,0,0,0,.3-.2.3h0Z"></path><path class="st58" d="M35.6,33.6s-.3,0-.5.1-.3-.8-.3-.8l-.2-.5s.3-.5.3-.5.3.5.6.4-.2.4-.2.5.4,0,.4,0c0,0,0-.2.2-.2s.6,0,.6,0l.2-.3s.7-.2.6-.3.7.1.9.3,1,0,1.3-.2,0-.4.2-.4.5-.1.6-.2.6,0,.6,0c0,0,0-.3.4-.4s1.5,0,1.5,0v.2s-.3-.2-.5,0-.4.5-.4.6-.7.6-.8.6-.3.3-.1.4.7.3.4.6-1.3.3-1.7.7-1.1.7-1.6.4-.8-.2-.7-.7.2-.7,0-.8,0-.5,0-.5c0,0-.6.2-.6.3s-.7.3-.7.3c0,0-.3.4-.2.4h0Z"></path><path class="st58" d="M45.5,57.2s0,1,.3,1.4.7.8.6,1.3.2.9.5.3.7-.2,1-.2,1.8-1.8,1.8-2.3.8-.6.7-.9-.8-.6-.3-.8.5-1.6.5-1.6c0,0,2.3-6,2.8-6.3s1-.7.6-.9-1.8-.4-2.5-2-1-2-1.3-2.3,0-.9.2-1.1.4-.6.3-1.1.2-.7.2-.9-.3,0-.8,0-1.5.2-1.4-.3.2-.5.4-.6.1-.4.7-.6,1,0,1.3,0,.7-.2.6-.5-.5,0-.5-.1,0-.8-.2-.9-.3-.2-.5.3-.2.7-.4.5,0-.8-.2-.8-.2.5-.4.5-.5.8-.3,1-.7.2-.8.5-.2.7-.2.8.1.6.4.5.6.3.4.4-.8.4-1.1-.1-.5-1.6-1-1.8-1-.8-1.1-.4c0,0,0,.3.4.5s.7.4.7.4c0,0,.1.6,0,.7s-.6,0-.7-.4-.9-1-.9-1c0,0-.2,0,0,.6s.8.9.5.9,0,0-.2.4.2.6,0,.7-2.2.6-2.1,2.2,2.8,6.7,2.3,7.4-1.4,1.5-1.1,2.8.9,3.7.9,3.7h0Z"></path><path class="st58" d="M69.2,31.2c0,0-.9-.4-1-.4,0,0-3-.5-4.6-.5s-1.6.2-1.9.1-1.4-.3-2.3-.4c0,0,.1-.3-.2-.4s-1,.2-1.4,0-1.1-.4-1.7-.4-.5.2-.1.2c.4,0,1.5.2,1.5.3,0,.1-1.3-.1-1.3,0s-.2.3-.5.3,0,.6-.2.6-.7,0-.5.1c.2.2.4.1.4.4s-.3,0-.5-.2c-.3-.2-.1-.5-.5-.5s-.7.3-.3.3c.3,0,.6,0,.5.3,0,.2-.2.4-.5.3s-.7-.2-1-.2c-.3,0-.6.2-.9.3-.3.1-.6.2-.7.5s-.4-.2-.4-.3c0,0-.4-.2-.3.1s0,.5,0,.5-.5.6-.7.5c-.3,0-.4-.4-.4-.6,0-.2,1.1,0,1.1-.2s-.8-.4-1.2-.5c-.4,0-.7,0-1,0s-.8.1-.9,0c0-.2-1.5,1.7-1.8,1.9s-.8.3-.8.8.4.6.5.7,0-.3.2-.3c.1,0,0,0,.2.2.1,0,.2,0,.2.1s-.3.2-.2.4c0,.2.7.1.8,0,0,0-.2-.7.2-.8.4,0,.5-.3.7-.3.2,0,.4-.3.2-.3-.2,0-1,.2-.9,0,.1-.2,0-.3.4-.6.3-.2.2-.6.5-.6.3,0,.7.1.5.2s-.6,0-.6.3c0,.3-.2.5,0,.5s1.1-.3,1.2,0-.7.3-.7.5c0,.2.2.3,0,.4s-.6,0-.5.3c0,.3,0,.5-.3.6-.3,0-1.1.2-1.2.3,0,0-.4-.1-.6,0s-1.5,1.1-1.5,1.5.4.2.6.6-.9,1.2-.5,2c.4.8.7.7,1,.7s.5-.5.2-.9c-.3-.4-.6-.6-.5-1s.6-.5.7-.7.5-.7,1-.4c.6.3,2.1,3.1,2.4,3.5.3.3,1.9.9,1.9.9,0,0,1.2,2.2,1.5,2.7s.7.9,1.3.8c.6-.2.8-1.2,1.4-1.2s.4-.3.6-.5.2-.3.4-.5c.1-.2.3-.5,0-.6-.3,0-.6-.2-.7-.4s-.5.2-.5.4c0,.2-.5.4-.5,0,0-.4.2-.3-.2-.4-.3-.1-.3.2-.5-.3-.2-.4-.3-.7-.1-.7.2,0,.5-.1.7.2.2.3.3.6.4.6.2,0,.2,0,.4,0,.2,0,0-.4.2-.2.3.2,1.6.5,1.7.3,0-.2.5-.7.6-.2.1.5.6.4.6.7,0,.3,0,.3.2,0,.1-.2.4-.7.4-.1,0,.6-.2.3-.2.9s.4.3.3.6c0,.3-.3.8.1,1.3s.1.8.4.8.4-.4.5-.4,0,.7.3.8c.2.1.3-.8.3-1,0-.2-.4-.1-.4-.5,0-.4-.1-1.2,0-1.2.2,0,.3-.1.4-.3s.4-.3.4-.5,0-.5.2-.6.5-.2.6-.4c0-.2.3-.2.3-.2,0,0-.2.6.2.6.3,0,.5,0,.5.3,0,.4,0,.6.1.6.2,0,.3-.1.2.2,0,.4.2.5.3.5,0,0,0,.2,0,.3s0,.9,0,.9c0,0,.5,0,.5.3,0,.2-.1.3,0,.5.1.3,0,.5.3.5s.4,0,.2-.3c-.2-.2-.2-.5-.2-.7s-.2-.3-.3-.4c0-.1-.3-.8-.1-1.1.2-.3.4-.3.4-.2,0,.1,0,.3,0,.4,0,0,0,.5.1.5.1,0,.4.2.4,0s0-.5,0-.6c0,0,.3,0,.3-1,0,0-.2-.3-.2-.5s-.3-.4-.4-.5-.2-.9-.1-.9c.1,0,.7,0,.9,0,.2-.2,1.5-.5,1.3-2,0,0-.2-.8-.8-1.2,0,0-.2-.5,0-.5.2,0,.5-.1.4-.4,0-.3-.9.2-.8,0,0-.2,0-.4.1-.4.1,0,.1-.4.1-.5,0,0,.3-.2.5,0s.2.2.3.5c0,.3.3.3.4.3,0,0,0,.3.2.5s.3,0,.2-.2,0-.4-.2-.6-.3-.3-.3-.5-.1-.6,0-.6c0,0,.6.1.7-.2,0-.3,0-.3.2-.4.1,0,0-.5,0-.7s-.2,0-.3-.5-.5-.3-.7-.3c-.1,0-.7.3-.8.2s-.3-1-.2-1.1c0,0,.2.5.4.4s-.2-.7.2-.8c.3,0,.7,0,.7-.2s-.2-.2.1-.2.3,0,.4-.2.7-.4.8-.2c0,.2,0,.8,0,.8,0,0,.3.9.6,1s.4,0,.4,0c0,0,0,0-.2-.4-.1-.3-.4-.6-.4-1,0-.4.4-.3.6-.3s.3-.4,0-.6c-.3-.2,0-.2.2-.2.3,0,.5,0,.5-.2h0ZM54.2,39.4c0,0-.3,0-.3,0,0,0-.1.1-.4,0-.3-.1,0-.6-.2-1.1,0-.5-.7-.5-.7-1.3s1.5-.6,1.5-.1c0,.5-.7.1-.9.3s0,.5.5.6c.5,0,.6.2.4.5s0,.3.3.7c.3.4,0,.3-.2.4Z"></path><path class="st58" d="M62.6,46.7c0-.1-.1-.3,0-.4s.2-.2.4-.2.2.3.2.4c.1.4.4.8.8,1,.2.1.5.2.6.5,0,.2,0,.3,0,.5.3.1.7.2,1,.2.4,0,.8,0,1.1.2-.2.1-.4.3-.7.3,0,0-.2,0-.3,0-.2,0-.4-.1-.7-.1s-.2,0-.3,0,0,.2,0,.2c-.1,0-.3,0-.4-.2,0,0,0-.2,0-.2,0,0,0,0-.1,0-.2,0-.3-.2-.4-.3,0,0-.2-.2-.1-.3,0,0,0-.1,0-.2,0,0-.1-.1-.2-.2,0,0-.1-.2,0-.4s0-.2,0-.4c0-.3-.5-.3-.6-.5h0Z"></path><path class="st58" d="M64.6,47.2c0,0,.2,0,.2-.1s0-.2,0-.2c0,0,.2,0,.3-.1s0-.2.1-.3c0,0,0,0,.2-.1.1-.1.2-.3.3-.4,0,0,.2-.2.1-.3,0-.1,0-.3,0-.3,0,0,0,0,0,0,.2,0,.3,0,.5,0,0,.3,0,.6-.3.8.1,0,.3,0,.4,0,0,0,0,.2-.1.3s0,.2,0,.3h.1c0-.2.2-.4.4-.4.2,0,.4.3.3.5-.1,0-.3,0-.4,0s-.1.3,0,.3c0,0,0,.2,0,.3s0,.2,0,.3-.2.1-.3,0c.2.2,0,.5-.2.6,0,0,0-.2,0-.2,0,0-.2,0-.2,0s0-.2,0-.2c0,0,0,0,.1,0s0,0,0-.1c.1-.3,0-.6-.2-.9,0,.2-.2.4-.3.6s0,.5.1.6c0,0-.5.1-.5.1-.2,0-.4,0-.5,0-.2-.2,0-.5-.3-.7h0Z"></path><path class="st58" d="M66.3,44.1s0,0,.1,0c0,0,.1,0,.1.2,0,.2-.2.8-.4.5-.1-.1,0-.2,0-.3,0,0,0,0,.1-.1,0,0,0-.2,0-.2h0Z"></path><path class="st58" d="M66.5,42c0,0,.2,0,.2.1s0,.2,0,.3c0,0,0,0,0,0,0,0,0,0,0,0,0,.1,0,.2,0,.4,0,0,.2,0,.2,0s.1.1,0,.2c0,0,0,0,0,.2h0c0,.2,0,.3,0,.5,0,.1,0,.3.1.4,0,0,0,0,0,0,.1,0,.3-.1.3,0,0,.2,0,.5,0,.7,0,0,0,.1,0,.2,0,.1-.2.1-.3,0s0-.2,0-.4c0,0,.1-.2.2-.2-.2,0-.3-.3-.3-.5,0,0,0-.1,0-.2,0,0,0-.1-.1-.2,0-.1,0-.3,0-.4,0,0,0,0,0,0,0,0,0,0,0,0-.1,0-.2,0-.3,0s-.2-.1-.2-.2.1,0,.2,0c.1,0,0,0,0-.2,0-.2,0-.5.1-.7h0Z"></path><path class="st58" d="M68.7,47.2c0,0-.1,0-.2,0-.2,0-.2-.2-.2-.4,0,0,0,0,0-.1,0,0,0,0-.1,0,0,0-.2,0-.2-.1s-.2,0-.2,0c0-.3,0-.5,0-.8.1,0,.3,0,.3.2,0,0,0,.2,0,.2,0,.1.1.2.2.2s.2,0,.3,0c0,0,.1,0,.1,0,0,0,0,.2,0,.2,0,0,.2.1.2.1,0,0,.2,0,.2,0,0,0,0-.1,0-.2s0-.2,0-.2h0c.1,0,.2,0,.3.2,0,0,0,0,0,0,0,0,.2,0,.3,0,0,0,.2,0,.3,0h0c0,0,.2.1.3.2,0,0,0,.1,0,.2,0,.1,0,.2,0,.4,0,0,0,.2,0,.2,0,0,.1,0,.2,0s0,.1,0,.2c.1,0,.2,0,.4.2-.2.1-.4.2-.6,0s-.3-.3-.3-.5h0c0-.1,0-.1,0-.1,0,0-.2,0-.2,0,0,0,0,.2,0,.3s-.1.3-.2.3c-.3,0-.2-.3-.3-.5,0-.2-.3-.4-.5-.5h0Z"></path><path class="st58" d="M70.7,46.2s0,0,0,0c0,0,0,0,0,0,0,0,.1,0,.2.1s0,.1,0,.2c0,0,0,.1,0,.2,0,0,0,0,0,0,.2,0,.4.1.6.2s0,0,0,.1,0,.1,0,.2c0,0,0,0,0,0,0,0,.1,0,.2.1,0,0,0,.1-.1.1-.3,0-.7-.3-.9-.5-.1,0-.2,0-.2-.2,0,0,.1-.1.1-.2,0,0,0-.2,0-.3h0Z"></path><path class="st58" d="M72.3,49.6c0-.2-.2-.3-.4-.3,0,0-.2,0-.2,0-.1.2.3.8.5.8.1,0,.2,0,.2-.2,0-.1,0-.2-.1-.2,0,0,0-.2,0-.2h0Z"></path><path class="st58" d="M67.9,55.9c0,0,.2,0,.3-.1,0,0,0,0,.1,0,0,0,0,.1,0,.2s0,.1,0,.2,0,0,0,0c0,0,0,0,0,0,0,0,0,.2-.1.2,0,0,0,0-.1,0,0,0-.1,0-.2,0s0-.2,0-.2c0,0,0,0,0,0,0,0,0,0,0,0,0-.1,0-.3,0-.4"></path><path class="st58" d="M64.6,55.5c0-.8,0-1.6,0-2.5,0-.1,0-.2,0-.3,0,0,0-.2.1-.2,0-.1.2-.3.3-.4,0-.1.2-.3.3-.4.1-.1.3-.2.4-.3.3-.2.4-.5.6-.8,0,0,0-.1,0-.2,0,0,0,0,.1-.1.3-.3.6-.5.9-.8,0,0,.2-.1.2-.2,0,0,0-.1,0-.2,0-.1.3-.2.4-.2,0,0,.2,0,.3,0,0,0,0,.2,0,.2,0,0,0,.2.2.2,0,.2-.3.2-.3.4,0,.1.2.2.2.3,0,0,0,.2,0,.3,0,.1.3,0,.3,0s0-.3,0-.4c0,0,0-.2,0-.2,0-.1,0-.2-.1-.3s0-.3.1-.2c0,.1,0,.3,0,.4s.2.2.3,0,0-.2,0-.3-.1-.2-.1-.3.1-.2.2-.2c0,0,0,0,0,0,.2.6.2,1.2.4,1.8.1.4.3.9.3,1.3,0,.2,0,.3-.1.4-.3.7-.8,1.4-1.2,2.1-.2.3-.5.7-.8.8-.1,0-.3,0-.4,0,0,0,0-.2,0-.3s.1-.2.2-.3c-.2,0-.4,0-.5,0,0,0,0,0,0,0,0,0,0-.1,0-.2,0,0,0-.2,0-.3s-.1-.2-.2-.1c0,0,0,0-.1,0-.5.6-1.1,1.1-1.8,1.5,0,0-.2.1-.3,0,0,0-.2-.1-.2-.2h.7"></path><path class="st58" d="M70.2,55.7c.4-.3.8-.7,1.1-1,0,0,.1-.1.2-.2.2-.2.3-.6.3-.9,0,0,0,0,.1,0,0-.3.2-.7.5-.8,0,0,0,.1,0,.2,0,.3,0,.6,0,.9s-.3.6-.6.5c0,.2,0,.5-.3.7s-.4.3-.5.5c-.1.2-.2.3-.3.5,0,0-.3.2-.4.1s-.1-.4,0-.5h0Z"></path><path class="st58" d="M67.3,37.9s0,0,0,0c0,0,0,0,0,0,0,0,.2,0,.2-.2s0-.2,0-.3c0,0,.2,0,.3,0,0-.1,0-.3,0-.5,0,0,0,0-.1-.1,0,0,0-.2.1-.3-.2,0-.2-.2-.2-.3s0-.3,0-.4c0-.1-.2-.2-.2-.3,0-.2,0-.4,0-.5,0,0,.2-.2.2-.1s.1.2.1.2c0,.2.1.5.3.6,0,0,.1,0,.1.1,0,0,0,0,0,0,0,0,0,.2-.2.3.1,0,.2.1.2.2s0,.2,0,.3c0,0,0,0,0,.2,0,.1-.1.3,0,.4,0,0,0,0,0,0,.1.2,0,.4,0,.5-.2,0-.4,0-.5.3,0,0,0,0,0,.1,0,0,0,.1-.1.2-.1,0-.3.3-.4,0,0-.2,0-.4,0-.6h0Z"></path><path class="st58" d="M45.6,30.7c0,0,.2,0,.4,0s.2.2.3.2c.2-.1.6-.1.7-.4,0,0,0,0,0-.1s0,0,0,0c.3-.2.6-.3,1-.3,0,0,.2,0,.2,0,.1,0,0,.3,0,.4s-.2.2-.3.3c0,.1-.2.3-.3.3,0,0-.2,0-.3,0-.2,0-.4-.2-.6,0-.2.1-.2.2-.4.2-.2,0-.4-.1-.6-.2-.2,0-.3-.2-.2-.3h0Z"></path><path class="st58" d="M52.2,30.7s.1,0,.2,0c.1,0,.2-.2.3-.3,0,0,.2-.1.3-.1.2,0,.4-.1.7-.2,0,0,.1,0,.2,0,0,0,0,.1,0,.2,0,.2-.2.3-.3.4s-.3,0-.5.2c-.1,0-.2.1-.3.2-.2.1-.3.3-.5.4-.3.2-.2-.5,0-.6h0Z"></path></g><g><path class="st49" d="M41.9,48c-.2,0-2.7,0-4.2.7h0s-.2.3,0,.4,1.2-.6,1.7-.6c0,0-1.1.6-1.9,1h0s-.3.4.2.4h.4c0-.1,0,0,0,0h0l-.9,1.2s0,0,0,0l1-.8h0l.5-.2h0s1.2-1.2,2.2-1.2h.2s0,.3,0,.3h0s-1.1.3-1.9.9-2.2,1.7-2.2,1.7l1.7-1.1s0,0,0,0l-1.1,1.3s0,0,0,0l.4-.2c.5-.2,1-.6,1.5-1l.2-.2h0l-.4-.2h0s.5-.5.9-.6.9,0,1,0h0c0,0,.6-1.5,1-1.7h0Z"></path><path class="st51" d="M35.8,29.6v-.3h0c0,0-2-2.7-2.5-3.2h0c0,.1-.1.8,0,1.2.2.5,1.8,2.2,1.9,2.3h.6s0,0,0,0Z"></path><path class="st52" d="M35.2,30.4v-.6c0,0-.2-.1-.3-.1,0,0-.6-.6-1.3-1.2,0,0-.2,0-.3-.2-.4-.4-1.1-1.1-1.2-1.3,0,0,0,0,0,0h-.6s0,0,0,0v.3s.4,0,.2,0l2.8,3h0l.7.2s0,0,0,0h0Z"></path><path class="st56" d="M34.8,31l-1-1.3h0l-2.3-1.4h0l-.6-.2s0,0,0,0v.4h0c0,0,1.8,1.7,2.2,1.9.5.2,1.5.5,1.7.5,0,0,0,0,0,0h0Z"></path><path class="st50" d="M35.2,32.4h-1.5l-.8-.4-2.5-1.4s0,0,0,0l-.2-.7s0,0,0,0l2.5.6,1.2.5,1.4,1.6h0Z"></path><path class="st43" d="M31.1,32.2h1.2v.2h1.2v.4h.6v.2h.6v.2h.8v.2s-.3,0-.4,0,0,.2,0,.2h-.2v.2h-.6c0,0,0,.3,0,.3h-.6v.2h.7v.2h.8v.3c0,0,.4,0,.4,0v.6h-.3v-.4c0,0-.2-.1-.2,0s0,.6,0,.6h-.8l-.2-.2h-.7l-.2-.2-.2-.3h-.3c0,0-.2-.4-.2-.4v-.3l-.3-.2h.5v-.3h-.4l-.3-.2-.3-.2h-.4c0,0,0-.4,0-.4,0,0-.1,0,0-.1s0-.3,0-.3h0Z"></path><path class="st42" d="M65.6,58h0c0,0,.1,0,.2,0,.4.4,2.1,1.9,3.3,2.1h1.3s-4.8-3.1-4.8-3.1h.2c0-.1,1.4.6,1.8.7s.9,0,.9,0c0,0-1.5-.4-5.4-3.5-4-3-5.2-3.9-5.2-3.9l-5.7-3s-2.5-1.2-3.2-3.3c0,0,.5-2,2.7-2.8h.3c0-.1-1-.6-1.7-.2-.2.1-1.2.8-1.4.9,0,0,0,0,0,0,0-.1.1-.5.2-.8,0,0-1.3.5-1.8,1.4h-.6l-3.8-5.9v-.5s-1.4-2.2-3.4-4.2c0,0-2.4-2.5-2.9-3-.5-.6-2.2-3-2.2-3,0,0,0-.2-.4,0-.3.1,2.2,3.7,2.2,3.7v.2c.1,0,.5,0,.7,0s1.3,1.3,1.3,1.3l.4.4v.4c0,0-.1.2-.1.2l.7.7,1,1v.3c-.1,0,.3.3.3.3h.2s.1.2.1.2l.5.2.3.3v.4s0,.3,0,.3l4.8,6.9v.4l-4.8-6.6v-.7c0,0-.4,0-.4,0v.3s.2,0,.2,0h0s-.4,0-.4,0c0,0-.2-.5-.2-.6s-.1-.2-.1-.2-.2-.2-.2-.2v-.3s.2,0,.2,0h0c0-.1-.7-.2-.7-.2v-.4c-.1,0-.5,0-.5,0v-.3h.4v-.2s-1.3,0-1.3,0v-.2s.7-.2.7-.2h-.5c0,0,0-.3,0-.3h.3s-.1-.2-.1-.2h-.5s-.2-.4-.2-.4v-.3s-.2-.2-.2-.2l.3-.2v-.3s-.1-.2-.1-.2l-.2-.2h-.1v-.2h-.4v.2s-.2,0-.2,0c0,0,0,.5,0,.5h.2c0,0,0,.1,0,.1,0,0,.2,0,.2,0s0,.2,0,.2c0,0,.2,0,.2,0s0,.3,0,.3h-.2c0,.1,0-.2,0-.2h-.4c0,0,0,.5,0,.5h.2s0,.9,0,.9h.3v-.2h.4s0,.3,0,.3h-.2c0,.1-.3.2-.3.2h0c0,.1-.2.2-.2.2h0c0,0,.6,0,.6,0v-.2h.3v.2c0,0,.3,0,.3,0l-.2.2h-.5v.4s.3,0,.3,0v.3c0,0-.2.2-.2.2h-.3c0,0-2.7,0-2.7,0,0,0-.9,0-1.1,0-.2,0-.2.6-.2.6,0,0,.2.7.5.8.3.1.6.1.6.1l.2.6.5.4v.3h-.2s-.2.2-.2.2v.6s.4.2.4.2h.2c0,.1.3.2.3.2,0,0,0,.3,0,.3s-.2-.2-.2-.1c0,0,0,.8,0,.8h.5c0,0,.1.4.1.4h-.3c0,0,0,.8,0,.8h.8s0,0,.1,0c0,0,0,.6,0,.6h.2s.3,0,.3,0v.6s.4.1.4.1c0,0,.2,0,.2,0,0,0,.1-.4.1-.4h.5c0,0,0,1.1,0,1.1h-.3c0,0,0,.5,0,.5h.3s0-.2,0-.2h.4v-.2c.1,0,.3,0,.3,0v.3l-.3.2-.2.2v.3c-.1,0,.5,0,.5,0l.2-.5v-.3c0,0,.3,0,.3,0v1c0,0-.3.2-.3.2v1.1c-.1,0,.7,0,.7,0l.2-.5h.2s.1,1.4.1,1.4h.7v.3s.3-.2.2,0-.2.6-.2.6l-.3.4v.7s0,.3,0,.3l-.8,2v.6c0,0,.8-1,.8-1l.8-.3v.5c0,0-1.9,1.5-1.9,1.5l1.4-.5.6-.4.2.5-.7.7-1.2.6h-1s.1-.5.1-.5l.6-.6v-1c0,0,.2-.3.2-.3l.2-1.2s-2.6,1.5-3.8,3.1c0,0,0,0,0,0h.4v.2h.6l.5-.3s-1.5,1.5-1.8,3.5h0c0,.2.2.4.4.4h0v.5c-.1.1,0,.2.1.2l1.4-.6v.7c0,.2.2.3.4.2h.1c0,0,.9-.5.9-.5h.2c0,0,.2.5.2.5,0,.2.3.3.5.2l.8-.6v-.3h.3v.7c0,.2,0,.3.2.4h.2c.2.2.4.2.6,0l.7-.7v-.5c.1,0,.3,0,.3,0l.2.4c0,0,.1,0,.2,0v-.2c.1,0,.2,0,.2,0h.1c0,0,.2,0,.2.1h0c0,.1,0,.2,0,.2h-.2c0,0,0,.4,0,.4h.1c0,.2.3.3.4.2h0c.2-.1.2-.3.2-.4,0-.8-.4-3.5,0-5.6h.3c0-.1.4.1.4.1h.7c0-.1.2-.4.5-.5,0,0,.3.3,0,.7h-.3v.9h.9c0,0,0,1,0,1l1.1-.2v1.1c0,0,.9,0,.9,0v.5c0,.2.2.3.4.2l.6-.2v.8c0,.1,0,.2.2.3h.4c0,0,.1-.2.1-.2v.7c.1.1.3.2.4.2h.5c0,0,0-.4,0-.4l.3-.2v1.4h.7c0,0,0,.5,0,.5,0,.1.1.2.2.2h.5l.2.4h.3v.5l.3-.3.6-.4c0,0,.2,0,.2,0v.3c0,0,.3.3.3.3h0c0,.3.1.4.3.4h.1v-.3h.4v.4l.4.2s0,0,.1,0h.4v-.2h.2s0,.2,0,.2l.5.7c0,0,.1.1.2.1h.7c0,0,0-.2,0-.2s.4,0,.4,0l.5,1c0,0,.1.1.2.1h.6c0,0,0,0,0-.1l-.3-.5v-.3s.5.1.5.1v.3c.1,0,.9.7.9.7h.2c0,0,.1,0,.1,0v-.2s0-.1.1-.2c.2,0,.3,0,.3,0,0,0,.6,1.3,1.3,1.3,0,0,0-.6-.3-1.3-.4-.7-.6-1.3-.7-1.6,0-.3,0-.9,0-.9l2,2.6s.7,2,1.9,2c0,0,.1-.9-1.1-2.4-1.2-1.5-1.6-2.3-1.6-2.3,0,0,.4,0,.5,0s0-.5,0-.5l1.9,1.8s0,0,0,0h.3s0,0,0,0v.4s0,0,0,0l.7.7.4.4h.5s0,0,0,0h0c0,.1.4,0,.4,0,0,0,0,0,0,0v-.3s0,0,0,0c-.3-.3-3.3-3.4-4.3-4.2,0,0,0-.2,0-.2h0ZM36.7,36.4v-.2h-.5v-.2h1.7c0-.1.3-.3.3-.3l.7-.3-.2.2-.2.3v.2s.3.1.3.1v.2c-.1,0-.3,0-.3,0h-.3c0,.1,0-.1,0-.1h-1.5,0ZM39.1,40.6s-.8,1.5-1,2.2h-.1v-.8s.2-.4.2-.4l.2-1.1v-1.9c0,0,.9-.4.9-.4l.2-.3h-.4s-.9.7-.9.7l-.7.5h-.3c0,0,1.6-1.5,1.6-1.5h.5v-.3h-.4c0-.1,0-.4,0-.4v-.3s0-.2,0-.2h.5c0,0,0,.3,0,.3.2,0,.4.5.4.5l-.2.3s.4-.3.4-.4c0,0,0-.3,0-.3h.7c0,0-.2.3-.2.3h.2s.3,0,.3,0v-.3s.3,0,.3,0v.4h-.2c0,0,0,.3,0,.3h-.5s-.1.3-.1.3l-.3.2-.3.9.2-.2.3-.5.3-.3s.2-.3.1,0v.3s0-.2.1-.1,0,.3,0,.3h-.1c0,.1-.6.7-.6.7v.2c-.1,0-.2.1-.2.1l-.3-.4-.7,1.5h0ZM41.7,40.8v.2c-.1,0-.1.3-.1.3l-.3.2-.2.5-.3.2v-.5c0,0,.1-.1.1-.2s0-.4.2-.4.1,0,.1,0v-.7h-.2v.4s0,0-.1,0-.2.4-.2.4l-.2.3s0,.1-.2,0,0-.5,0-.5l.3-.4h.3c0-.1,0-.4,0-.4h-.2l-.2.2h-.4v-.3l.8-.8.6-.6h.1v.4h-.2c0,0,0,.3,0,.3h.2c0-.1.2-.3.2-.3v-.3l.2-.3h.4v.3h.1v.5l-.4.2-.2.3-.3.2v.3s.2,0,.2,0v-.3h.4v.2h-.2s0,.5,0,.5h0ZM42.1,42.4l-.3.2v-.9c0,0,.5-.2.5,0,0,.2-.2.6-.2.6h0ZM42.6,39.3c0,0,0,0,0,0v-.7h.4v.8c0,0-.1.3-.1.3,0,0-.1-.4-.1-.5h0ZM42.7,44.2v-.9c0,0,.2,0,.2,0s0,.8,0,.8h-.2c0,0,0,.1,0,.1ZM45.5,43.1l-1.1,1.2-.3-.3.4-.5.4-.5s-.4,0-.4,0-.2.6-.2.6l-.3-.2h-.1s-.1-.5,0-.5.5,0,.5,0v-.9h.4v-.3c0,0,.5,0,.5,0s-.3.6-.3.6h0c0,0,.3.4.3.4h.5s0,.5,0,.5ZM57.5,54.4h0c0,.1,0,.1,0,.1,0,0-.2,0-.2-.2v-.5c0,0-.1-.1-.2-.2l-.3-.2-.2-.5s0,0,0,0l.6.3.4.2c0,0,0,0,0,.2v.7s0,0,0,.2h0ZM61.4,56.8h-.1c0,0,0-.1,0-.2h0c0,0,0-.1,0-.1l-.6-.3s0,0,0,0v.4s0,0,0,0h-.3c0,0,0-.1,0-.2v-.4s0,0,0,0h-.3c0,.1,0,.2,0,.2v.2c0,0-.1,0-.2,0l-.3-.4s0,0,0,0h-.3c0,0,0,0,0,0v-.2c0,0-.1,0-.1,0h-.6c0,0-.1,0-.1,0v-.2c0,0,0-.2.2-.2h.1c0,0,.1,0,.2,0l.2-.4s0,0,0,0v-.6h0s0,0,.1,0l.3.3v.5h.1v.5c0,0,.1,0,.1,0l.2.2s0,0,0,0h.2s0,0,0,0v-.4s0,0,0,0h.3c0,.1,0,.1,0,.2v.3c0,0,.1,0,.2,0h.4s0,0,0,0l.2.2s0,0,0,0h.3s0,0,0,0l.2.2s0,0,0,0v.2c0,0-.2,0-.2,0h0ZM63.2,56.7h-.2s.3.9.3.9c0,0,0,.1,0,.1h0c0,0-.2,0-.2-.2l-.5-1h-.1c-.1,0-.2,0-.2-.2v-.4h.2c0-.1.2-.3.2-.3v-.6c-.1,0-.2-.2-.3-.2h0c0,0-.2-.1-.2-.2h0c0,0,0-.1,0-.1h.2c0,0,.2,0,.2,0v.3c0,0,.3,0,.3,0,0,0,.1,0,.1.2v.5c0,0,0,.2.2.2h0l.2.3v.4c0,.1,0,.2-.2.2h0Z"></path><path class="st49" d="M36.2,34.8s.6,0,1,0v.2h-.5v.2c0,0-.1.2-.1.2h-.4s0-.3,0-.3v-.3c.1,0,.1,0,.1,0Z"></path></g></g></g><rect class="st2" x="23.4" y="71.5" width="48" height="1.1" transform="translate(-26.2 117) rotate(-88.1)"></rect><rect class="st13" x="19.8" y="71.1" width="48" height="1.1" transform="translate(-34.6 101.8) rotate(-79.5)"></rect><rect class="st29" x="18.3" y="70.8" width="48" height="1.1" transform="translate(-37.2 94.9) rotate(-75.8)"></rect><rect class="st11" x="12.5" y="68.5" width="48" height="1.1" transform="translate(-41.6 67.4) rotate(-60.9)"></rect><rect class="st39" x="11" y="67.5" width="48" height="1.1" transform="translate(-41.1 59.7) rotate(-56.5)"></rect><rect class="st18" x="9.3" y="66.3" width="48" height="1.1" transform="translate(-39.8 51.3) rotate(-51.5)"></rect><rect class="st26" x="6.3" y="63.5" width="48" height="1.1" transform="translate(-34.7 35.9) rotate(-41.3)"></rect><rect class="st33" x="4" y="60.6" width="48" height="1.1" transform="translate(-28.5 24.6) rotate(-32.5)"></rect><rect class="st22" x=".7" y="53.3" width="48" height="1.1" transform="translate(-11.8 7.2) rotate(-13.3)"></rect><rect class="st34" x=".2" y="50.3" width="48" height="1.1" transform="translate(-5.3 2.9) rotate(-6.2)"></rect><rect class="st27" x="0" y="48.7" width="48" height="1.1" transform="translate(-2.1 1.1) rotate(-2.5)"></rect><rect class="st7" x="23.5" y="22.3" width="1.1" height="48" transform="translate(-24.1 66.5) rotate(-85.3)"></rect><polygon class="st6" points="1.1 37.9 1.3 36.9 48 47.7 47.7 48.8 1.1 37.9"></polygon><polygon class="st24" points="1.8 35.1 2.1 34 48 47.7 47.7 48.8 1.8 35.1"></polygon><rect class="st32" x="26.5" y="12.3" width="1.1" height="48" transform="translate(-17.9 41.8) rotate(-60.3)"></rect><rect class="st5" x="27.8" y="10.2" width="1.1" height="48" transform="translate(-15.9 37.2) rotate(-54.2)"></rect><rect class="st35" x="28.8" y="8.8" width="1.1" height="48" transform="translate(-14.6 34.3) rotate(-50.1)"></rect><rect class="st38" x="31.7" y="5.9" width="1.1" height="48" transform="translate(-11.7 28) rotate(-40.3)"></rect><rect class="st19" x="34.4" y="4" width="1.1" height="48" transform="translate(-9.5 23) rotate(-32.3)"></rect><rect class="st14" x="41.6" y=".9" width="1.1" height="48" transform="translate(-4.6 10.5) rotate(-13.4)"></rect><rect class="st21" x="44.7" y=".3" width="1.1" height="48" transform="translate(-2.2 4.7) rotate(-5.7)"></rect><rect class="st20" x="25.5" y="23.6" width="48" height="1.1" transform="translate(21.6 71.7) rotate(-85.6)"></rect><rect class="st9" x="28.9" y="24" width="48" height="1.1" transform="translate(17.4 70.9) rotate(-77.4)"></rect><rect class="st36" x="32.2" y="25" width="48" height="1.1" transform="translate(12.4 69) rotate(-69.2)"></rect><rect class="st12" x="38.9" y="28.6" width="48" height="1.1" transform="translate(.7 59.7) rotate(-51)"></rect><rect class="st25" x="43.8" y="33.6" width="48" height="1.1" transform="translate(-7.5 44) rotate(-34.2)"></rect><rect class="st23" x="47.1" y="40.2" width="48" height="1.1" transform="translate(-8.7 21.9) rotate(-16.5)"></rect><rect class="st8" x="47.9" y="43.8" width="48" height="1.1" transform="translate(-5.4 10.2) rotate(-7.8)"></rect><rect class="st17" x="71.7" y="24.7" width="1.1" height="48" transform="translate(20.1 118.5) rotate(-87.3)"></rect><rect class="st1" x="71.4" y="28.1" width="1.1" height="48" transform="translate(7.2 112.9) rotate(-79.1)"></rect><rect class="st37" x="71" y="29.9" width="1.1" height="48" transform="translate(.7 108.7) rotate(-74.7)"></rect><rect class="st3" x="68.4" y="36.2" width="1.1" height="48" transform="translate(-18.7 86.6) rotate(-57.9)"></rect><rect class="st4" x="67.1" y="38.2" width="1.1" height="48" transform="translate(-23.1 77.1) rotate(-52)"></rect><rect class="st31" x="64.7" y="41" width="1.1" height="48" transform="translate(-26.8 61.8) rotate(-43)"></rect><rect class="st15" x="61.4" y="43.7" width="1.1" height="48" transform="translate(-26.7 44) rotate(-32.5)"></rect><rect class="st28" x="54.6" y="47" width="1.1" height="48" transform="translate(-15.8 15.8) rotate(-14.3)"></rect><rect class="st30" x="51.4" y="47.7" width="1.1" height="48" transform="translate(-7.5 6.1) rotate(-6.3)"></rect><path class="st10" d="M74.9,22.9c12.1,15.2,10.1,37.8-4.4,50.5-14.5,12.7-36,10.6-48-4.6s-10.1-37.8,4.4-50.5c14.5-12.7,36-10.6,48,4.6Z"></path><path class="st47" d="M24.8,19.4c-10.6,8.7-14.1,18-14.1,28.8s3.2,16.4,5.1,19.4c11.4,17.7,27,17.7,27,17.7,0,0,.5,0,.9-.3s0-.6,0-.6c0,0-2.4-.5-4-.9s-9.6-2.5-15.2-7.6c-5.7-5.1-9.3-12.2-10.7-15.7s-1.7-8.4-1.7-8.4c0,0,.5-1.2,2-1.5s2.1.7,2.1.7c1.1,11.8,7.6,18.4,7.6,18.4,8.1,9,15.9,10.2,18.5,10.6s1.9.2,1.9.8-.6.9-.7,1-10.2-1.1-18.7-9-9.7-18.5-10-19.9-1.3-1.1-1.3-1.1v1.9c.1,2.1,2.6,12.3,10.1,19.7,7.9,7.8,20,9.5,20,9.5,0,0,.7.7.7,2.3s-.5,1.7-.5,1.7c-11.6-1.6-20.5-6.2-28.2-17-7-9.7-6.3-22-6.3-22,0,0-1.1-11.7,9.1-24.1,10.4-12.8,25-13.8,26.3-13.9s1.7-.1,2,1.9-1.7,2.3-1.7,2.3c-4.4.2-8.7,2-8.7,2-21.9,7.5-22.8,30.1-22.8,30.1l.5.2c1.1-.2,1-1.5,1-1.5.5-4.8,2.4-12.1,8.3-18.6,5.9-6.5,14.3-11.2,25.1-11.2s18.6,5.7,18.6,5.7c13.7,9.9,14.2,23.9,14.2,25s-1,.9-1,.9c.3-2.2-1-7.3-2.9-12.4-2-5.1-12.2-18.2-29.3-18.2-17.6.5-24.3,11.1-27.7,16.6-3.4,5.5-4.2,14.5-4.2,14.5,0,0-.2.6-1.7.8s-2.1-.7-2.1-.7c0,0,0-.9,0-3.7s2.1-7.9,2.1-7.9c0,0,2.4-8.7,11.2-15.3s18.8-7.9,19.6-8.1,0-.8,0-.8c0,0-9.7-.6-20.3,8.1h0ZM48.3,80.4v6.4c.1,0,23.1,2.3,35.5-22.1,2.2-4.3,7.9-22.9-3.3-39-1.6-2.4-9.3-14.4-28.9-16.5-2.3-.2-2.8,1-2.6,1.9s.4,2.2,1.2,2.3,3,.1,3,.1c0,0,19,2.2,26.5,18.9,7.5,16.7,1.8,29-1.8,34.6-3.6,5.6-11.4,13.8-24.3,15.6,0,0-1.5.3-1.8-.3,0,0-.2-.5,2.3-1,2.5-.4,17.2-4.3,23.9-17.1,0,0,4.1-9.1,3.8-13.4,0,0,0-1.2-1.3-1.9,0,0,0,12.7-9.3,22.2,0,0-7.3,7.2-17.9,8.8,0,0-1.6.1-2,.5s-.4,1.4-.4,2,0,1.6.4,1.7,13.5,1.1,26.8-15.2c3.6-4.4,8.1-16.5,5.9-27.6s-8.5-21.4-21.6-26.6c0,0-7.6-2.9-10.2-2.8,0,0-2.3-.3-2.3-.9s2.2-.5,3.1-.4,22.9,1.7,31.2,25.2-8.7,38.6-11.3,41-8.9,6.4-14.9,7.6-5.9,1.1-6.9,1.1-1.9.2-1.9.2c0,0-.2.1-.2-1s0-4.4,0-4.4h-.9Z"></path></g></g></g></g></svg> 